<svg width="134" height="162" viewBox="0 0 134 162" fill="none" xmlns="http://www.w3.org/2000/svg">
<path d="M132.001 27.5892C110.613 29.728 79.5498 11.4209 66.6916 2C52.9422 18.1937 17.1683 25.8068 1 27.5892V93.2807C1 105.502 2.90964 113.141 6.34699 118.488C26.9711 145.987 59.4349 157.445 66.6916 160.5C82.3506 153.625 117.106 130.71 124.745 118.488C128.754 112.073 131.747 99.3916 132.001 93.2807C132.256 73.1659 132.612 31.8667 132.001 27.5892Z" stroke="#0C2B5F" stroke-width="1.52771"/>
<path d="M118.743 35.7036C101.453 37.4352 76.3405 22.6131 65.9457 14.9856C54.8305 28.0967 25.9104 34.2605 12.8398 35.7036V88.89C12.8398 98.7851 14.3836 104.97 17.1624 109.299C33.8352 131.563 60.0794 140.84 65.9457 143.313C78.6047 137.747 106.701 119.194 112.877 109.299C116.118 104.105 118.537 93.8376 118.743 88.89C118.949 72.6042 119.237 39.1669 118.743 35.7036Z" stroke="#0C2B5F" stroke-width="1.52771"/>
<circle cx="65.9278" cy="78.7675" r="29.4084" stroke="#0C2B5F" stroke-width="1.52771"/>
<path d="M45.5466 89.9421L56.9861 64.2766H62.8525L74.3287 89.9421H68.0956L58.7093 67.2831H61.0559L51.633 89.9421H45.5466ZM51.2663 84.4424L52.8429 79.9326H66.0424L67.6556 84.4424H51.2663ZM76.9915 89.9421V64.2766H82.9312V89.9421H76.9915Z" fill="#0C2B5F"/>
</svg>
