<svg width="117" height="118" viewBox="0 0 117 118" fill="none" xmlns="http://www.w3.org/2000/svg">
<path d="M41.5 95L2.27854 73.2103C1.86188 72.9788 1.38839 73.4062 1.57615 73.8443L7 86.5M41.5 95L2.3241 116.281C1.90126 116.51 1.42981 116.069 1.63146 115.632L7 104M41.5 95L7 86.5M41.5 95L7 104M7 104L1.19029 95.2854C1.07563 95.1134 1.07862 94.8886 1.19783 94.7197L7 86.5" stroke="#0C2B5F" stroke-width="2"/>
<path d="M47.5 95.0002H103M85.5 30.0002L81.5 25M85.5 30.0002L81.5 35.5M85.5 30.0002C79.7132 29.8716 65.592 29.7033 47.5 29.8168M85.5 30.0002L47.5 29.8168M47.5 29.8168L44 25M47.5 29.8168L44 35.5" stroke="#0C2B5F" stroke-width="2"/>
<path d="M78 89L82.2409 94.1834C82.3916 94.3676 82.3916 94.6324 82.2409 94.8166L78 100" stroke="#0C2B5F" stroke-width="2"/>
<path d="M64.5 63L59.3235 68.6471C59.1426 68.8444 59.1492 69.1492 59.3385 69.3385L64.5 74.5" stroke="#0C2B5F" stroke-width="2"/>
<circle cx="87" cy="30" r="29" stroke="#0C2B5F" stroke-width="2"/>
<circle cx="87.5" cy="29.5" r="21.5" stroke="#0C2B5F" stroke-width="2"/>
<mask id="path-7-inside-1_1_117" fill="white">
<path d="M85.8934 19.2036C87.4588 18.8982 89.0719 18.9368 90.6209 19.3168C92.1699 19.6968 93.6178 20.4091 94.8641 21.4044C96.1104 22.3996 97.1254 23.654 97.8386 25.0805C98.5519 26.5071 98.9465 28.0717 98.9949 29.6659C99.0434 31.2601 98.7446 32.8457 98.1192 34.313C97.4938 35.7802 96.5569 37.0939 95.3733 38.163C94.1897 39.2321 92.7878 40.031 91.2648 40.5043C89.7417 40.9777 88.1339 41.1142 86.5528 40.9044L86.7789 39.2012C88.113 39.3782 89.4697 39.2631 90.7548 38.8636C92.04 38.4642 93.2229 37.7901 94.2217 36.888C95.2204 35.9859 96.011 34.8774 96.5386 33.6393C97.0663 32.4013 97.3185 31.0633 97.2776 29.7181C97.2367 28.3729 96.9038 27.0527 96.3019 25.8489C95.7 24.6452 94.8436 23.5868 93.7919 22.747C92.7403 21.9072 91.5186 21.3061 90.2115 20.9855C88.9045 20.6648 87.5433 20.6322 86.2224 20.8899L85.8934 19.2036Z"/>
</mask>
<path d="M85.8934 19.2036C87.4588 18.8982 89.0719 18.9368 90.6209 19.3168C92.1699 19.6968 93.6178 20.4091 94.8641 21.4044C96.1104 22.3996 97.1254 23.654 97.8386 25.0805C98.5519 26.5071 98.9465 28.0717 98.9949 29.6659C99.0434 31.2601 98.7446 32.8457 98.1192 34.313C97.4938 35.7802 96.5569 37.0939 95.3733 38.163C94.1897 39.2321 92.7878 40.031 91.2648 40.5043C89.7417 40.9777 88.1339 41.1142 86.5528 40.9044L86.7789 39.2012C88.113 39.3782 89.4697 39.2631 90.7548 38.8636C92.04 38.4642 93.2229 37.7901 94.2217 36.888C95.2204 35.9859 96.011 34.8774 96.5386 33.6393C97.0663 32.4013 97.3185 31.0633 97.2776 29.7181C97.2367 28.3729 96.9038 27.0527 96.3019 25.8489C95.7 24.6452 94.8436 23.5868 93.7919 22.747C92.7403 21.9072 91.5186 21.3061 90.2115 20.9855C88.9045 20.6648 87.5433 20.6322 86.2224 20.8899L85.8934 19.2036Z" stroke="#0C2B5F" stroke-width="4" mask="url(#path-7-inside-1_1_117)"/>
<path d="M29.5 69H59H103" stroke="#0C2B5F" stroke-width="2"/>
<path d="M48 29.5H32" stroke="#0C2B5F" stroke-width="2"/>
<mask id="path-10-inside-2_1_117" fill="white">
<path d="M101 68C104.713 68 108.274 69.475 110.899 72.1005C113.525 74.726 115 78.287 115 82C115 85.713 113.525 89.274 110.899 91.8995C108.274 94.525 104.713 96 101 96V94.0234C104.189 94.0234 107.247 92.7567 109.502 90.5018C111.757 88.247 113.023 85.1888 113.023 82C113.023 78.8112 111.757 75.753 109.502 73.4982C107.247 71.2433 104.189 69.9766 101 69.9766V68Z"/>
</mask>
<path d="M101 68C104.713 68 108.274 69.475 110.899 72.1005C113.525 74.726 115 78.287 115 82C115 85.713 113.525 89.274 110.899 91.8995C108.274 94.525 104.713 96 101 96V94.0234C104.189 94.0234 107.247 92.7567 109.502 90.5018C111.757 88.247 113.023 85.1888 113.023 82C113.023 78.8112 111.757 75.753 109.502 73.4982C107.247 71.2433 104.189 69.9766 101 69.9766V68Z" stroke="#0C2B5F" stroke-width="4" mask="url(#path-10-inside-2_1_117)"/>
<mask id="path-11-inside-3_1_117" fill="white">
<path d="M30.2626 69.9938C27.4609 69.9481 24.6972 69.3377 22.1369 68.1991C19.5766 67.0605 17.2723 65.4171 15.3618 63.3673C13.4513 61.3175 11.974 58.9034 11.0181 56.2694C10.0623 53.6354 9.64762 50.8356 9.79889 48.0377C9.95016 45.2397 10.6643 42.501 11.8985 39.9854C13.1328 37.4698 14.8618 35.229 16.9821 33.3971C19.1025 31.5653 21.5705 30.1799 24.2387 29.324C26.9068 28.4681 29.7202 28.1592 32.5105 28.4157L32.2928 30.7824C29.8208 30.5551 27.3284 30.8287 24.9646 31.587C22.6009 32.3453 20.4143 33.5726 18.5359 35.1955C16.6574 36.8185 15.1256 38.8036 14.0322 41.0322C12.9387 43.2609 12.3061 45.6872 12.172 48.166C12.038 50.6448 12.4054 53.1251 13.2522 55.4587C14.099 57.7922 15.4078 59.9309 17.1004 61.7469C18.7929 63.5629 20.8344 65.0188 23.1026 66.0275C25.3709 67.0362 27.8193 67.577 30.3014 67.6175L30.2626 69.9938Z"/>
</mask>
<path d="M30.2626 69.9938C27.4609 69.9481 24.6972 69.3377 22.1369 68.1991C19.5766 67.0605 17.2723 65.4171 15.3618 63.3673C13.4513 61.3175 11.974 58.9034 11.0181 56.2694C10.0623 53.6354 9.64762 50.8356 9.79889 48.0377C9.95016 45.2397 10.6643 42.501 11.8985 39.9854C13.1328 37.4698 14.8618 35.229 16.9821 33.3971C19.1025 31.5653 21.5705 30.1799 24.2387 29.324C26.9068 28.4681 29.7202 28.1592 32.5105 28.4157L32.2928 30.7824C29.8208 30.5551 27.3284 30.8287 24.9646 31.587C22.6009 32.3453 20.4143 33.5726 18.5359 35.1955C16.6574 36.8185 15.1256 38.8036 14.0322 41.0322C12.9387 43.2609 12.3061 45.6872 12.172 48.166C12.038 50.6448 12.4054 53.1251 13.2522 55.4587C14.099 57.7922 15.4078 59.9309 17.1004 61.7469C18.7929 63.5629 20.8344 65.0188 23.1026 66.0275C25.3709 67.0362 27.8193 67.577 30.3014 67.6175L30.2626 69.9938Z" stroke="#0C2B5F" stroke-width="4" mask="url(#path-11-inside-3_1_117)"/>
</svg>
