<svg width="170" height="163" viewBox="0 0 170 163" fill="none" xmlns="http://www.w3.org/2000/svg">
<path d="M100.178 130.779H69.839C66.2221 130.779 63.2899 133.711 63.2899 137.328V153.177C63.2899 156.793 66.2221 159.726 69.839 159.726H100.178C103.795 159.726 106.727 156.793 106.727 153.177V137.328C106.727 133.711 103.795 130.779 100.178 130.779Z" stroke="#0C2B5F" stroke-width="2.91071" stroke-linecap="round" stroke-linejoin="round"/>
<path d="M85 113.881C88.361 113.881 91.5843 115.216 93.9609 117.593C96.3374 119.97 97.6726 123.193 97.6726 126.554V130.778H72.3275V126.554C72.3275 123.193 73.6627 119.97 76.0392 117.593C78.4158 115.216 81.6391 113.881 85 113.881Z" stroke="#0C2B5F" stroke-width="2.91071" stroke-linecap="round" stroke-linejoin="round"/>
<path d="M85 146.463C87.6675 146.463 89.83 144.301 89.83 141.633C89.83 138.966 87.6675 136.803 85 136.803C82.3325 136.803 80.17 138.966 80.17 141.633C80.17 144.301 82.3325 146.463 85 146.463Z" fill="#65A4D6"/>
<path d="M85.0001 148.869V139.209" stroke="#65A4D6" stroke-width="1.00755" stroke-linecap="round" stroke-linejoin="round"/>
<mask id="path-5-inside-1_2_406" fill="white">
<path d="M139.688 76.7063C144.976 77.9521 149.941 80.3009 154.257 83.5988C158.574 86.8968 162.145 91.0695 164.737 95.8436C167.329 100.618 168.884 105.886 169.298 111.302C169.713 116.719 168.978 122.162 167.143 127.275C165.308 132.388 162.413 137.055 158.649 140.972C154.884 144.888 150.334 147.965 145.298 150.001C140.262 152.037 134.852 152.986 129.423 152.786C123.994 152.586 118.669 151.241 113.796 148.84L115.587 145.207C119.948 147.356 124.714 148.56 129.572 148.739C134.431 148.918 139.273 148.069 143.78 146.246C148.288 144.424 152.359 141.67 155.729 138.165C159.098 134.66 161.689 130.483 163.331 125.906C164.974 121.33 165.631 116.459 165.26 111.611C164.889 106.764 163.498 102.049 161.178 97.7761C158.858 93.5033 155.662 89.7688 151.798 86.8172C147.935 83.8656 143.492 81.7635 138.759 80.6485L139.688 76.7063Z"/>
</mask>
<path d="M139.688 76.7063C144.976 77.9521 149.941 80.3009 154.257 83.5988C158.574 86.8968 162.145 91.0695 164.737 95.8436C167.329 100.618 168.884 105.886 169.298 111.302C169.713 116.719 168.978 122.162 167.143 127.275C165.308 132.388 162.413 137.055 158.649 140.972C154.884 144.888 150.334 147.965 145.298 150.001C140.262 152.037 134.852 152.986 129.423 152.786C123.994 152.586 118.669 151.241 113.796 148.84L115.587 145.207C119.948 147.356 124.714 148.56 129.572 148.739C134.431 148.918 139.273 148.069 143.78 146.246C148.288 144.424 152.359 141.67 155.729 138.165C159.098 134.66 161.689 130.483 163.331 125.906C164.974 121.33 165.631 116.459 165.26 111.611C164.889 106.764 163.498 102.049 161.178 97.7761C158.858 93.5033 155.662 89.7688 151.798 86.8172C147.935 83.8656 143.492 81.7635 138.759 80.6485L139.688 76.7063Z" stroke="#0C2B5F" stroke-width="5.82143" mask="url(#path-5-inside-1_2_406)"/>
<mask id="path-6-inside-2_2_406" fill="white">
<path d="M30.3119 72.3403C25.0243 73.5861 20.0595 75.9349 15.7427 79.2329C11.426 82.5308 7.85461 86.7035 5.2626 91.4777C2.67059 96.2518 1.1164 101.52 0.701828 106.936C0.287254 112.353 1.02165 117.796 2.85692 122.909C4.69218 128.022 7.58691 132.689 11.3515 136.606C15.1161 140.522 19.6656 143.599 24.702 145.635C29.7385 147.671 35.1482 148.62 40.5769 148.42C46.0056 148.22 51.3308 146.875 56.2037 144.474L54.4135 140.841C50.0523 142.99 45.2864 144.194 40.4277 144.373C35.5691 144.552 30.7275 143.703 26.22 141.88C21.7124 140.058 17.6407 137.304 14.2714 133.799C10.9022 130.294 8.31145 126.117 6.66892 121.541C5.02639 116.964 4.36912 112.093 4.74015 107.245C5.11119 102.398 6.50217 97.6829 8.82198 93.4101C11.1418 89.1373 14.3381 85.4028 18.2015 82.4512C22.065 79.4996 26.5084 77.3975 31.2407 76.2825L30.3119 72.3403Z"/>
</mask>
<path d="M30.3119 72.3403C25.0243 73.5861 20.0595 75.9349 15.7427 79.2329C11.426 82.5308 7.85461 86.7035 5.2626 91.4777C2.67059 96.2518 1.1164 101.52 0.701828 106.936C0.287254 112.353 1.02165 117.796 2.85692 122.909C4.69218 128.022 7.58691 132.689 11.3515 136.606C15.1161 140.522 19.6656 143.599 24.702 145.635C29.7385 147.671 35.1482 148.62 40.5769 148.42C46.0056 148.22 51.3308 146.875 56.2037 144.474L54.4135 140.841C50.0523 142.99 45.2864 144.194 40.4277 144.373C35.5691 144.552 30.7275 143.703 26.22 141.88C21.7124 140.058 17.6407 137.304 14.2714 133.799C10.9022 130.294 8.31145 126.117 6.66892 121.541C5.02639 116.964 4.36912 112.093 4.74015 107.245C5.11119 102.398 6.50217 97.6829 8.82198 93.4101C11.1418 89.1373 14.3381 85.4028 18.2015 82.4512C22.065 79.4996 26.5084 77.3975 31.2407 76.2825L30.3119 72.3403Z" stroke="#0C2B5F" stroke-width="5.82143" mask="url(#path-6-inside-2_2_406)"/>
<mask id="path-7-inside-3_2_406" fill="white">
<path d="M27.3327 73.9805C26.9641 65.8505 28.3171 57.7343 31.3033 50.1636C34.2895 42.5928 38.8413 35.7383 44.6607 30.0491C50.4801 24.3598 57.4358 19.9642 65.0721 17.15C72.7084 14.3358 80.8531 13.1666 88.9727 13.719C97.0923 14.2714 105.004 16.5328 112.188 20.3553C119.373 24.1777 125.67 29.4749 130.665 35.8999C135.66 42.3249 139.242 49.7327 141.175 57.6381C143.108 65.5435 143.35 73.7681 141.884 81.7733L138.058 81.0726C139.425 73.6063 139.2 65.9353 137.397 58.562C135.594 51.1888 132.253 44.2797 127.594 38.2872C122.935 32.2947 117.063 27.3541 110.362 23.789C103.661 20.2238 96.2818 18.1146 88.7087 17.5994C81.1357 17.0842 73.5393 18.1747 66.417 20.7994C59.2947 23.4242 52.8073 27.5239 47.3796 32.8302C41.952 38.1365 37.7065 44.5296 34.9214 51.5907C32.1363 58.6517 30.8743 66.2216 31.218 73.8043L27.3327 73.9805Z"/>
</mask>
<path d="M27.3327 73.9805C26.9641 65.8505 28.3171 57.7343 31.3033 50.1636C34.2895 42.5928 38.8413 35.7383 44.6607 30.0491C50.4801 24.3598 57.4358 19.9642 65.0721 17.15C72.7084 14.3358 80.8531 13.1666 88.9727 13.719C97.0923 14.2714 105.004 16.5328 112.188 20.3553C119.373 24.1777 125.67 29.4749 130.665 35.8999C135.66 42.3249 139.242 49.7327 141.175 57.6381C143.108 65.5435 143.35 73.7681 141.884 81.7733L138.058 81.0726C139.425 73.6063 139.2 65.9353 137.397 58.562C135.594 51.1888 132.253 44.2797 127.594 38.2872C122.935 32.2947 117.063 27.3541 110.362 23.789C103.661 20.2238 96.2818 18.1146 88.7087 17.5994C81.1357 17.0842 73.5393 18.1747 66.417 20.7994C59.2947 23.4242 52.8073 27.5239 47.3796 32.8302C41.952 38.1365 37.7065 44.5296 34.9214 51.5907C32.1363 58.6517 30.8743 66.2216 31.218 73.8043L27.3327 73.9805Z" stroke="#0C2B5F" stroke-width="5.82143" mask="url(#path-7-inside-3_2_406)"/>
</svg>
