<svg width="164" height="154" viewBox="0 0 164 154" fill="none" xmlns="http://www.w3.org/2000/svg">
<path d="M76.0838 71.6987L83.3159 79.5883L106.327 55.2622" stroke="#0C2B5F" stroke-width="2.62984"/>
<path d="M123.421 43.4278C107.642 45.5317 94.4928 35.5383 89.8905 30.2786C82.001 43.4278 62.2772 43.4278 57.0175 43.4278C55.0451 90.765 86.6032 105.229 89.8905 108.516C128.681 84.8478 123.421 47.3726 123.421 43.4278Z" stroke="#0C2B5F" stroke-width="2.62984"/>
<path d="M15.5974 2.00845H114.874C120.134 1.35099 131.311 3.98083 133.94 19.7599C134.598 25.0196 140.515 52.6324 141.83 73.6711C143.145 94.7099 144.46 127.583 144.46 129.555" stroke="#0C2B5F" stroke-width="2.62984"/>
<path d="M71.4816 129.555H162.869" stroke="#0C2B5F" stroke-width="2.62984"/>
<path d="M55.045 152.566H147.747" stroke="#0C2B5F" stroke-width="2.62984"/>
<path d="M147.747 152.566C153.226 152.785 163.658 148.622 161.554 130.213" stroke="#0C2B5F" stroke-width="2.62984"/>
<path d="M72.1391 128.24C73.6731 136.13 74.1114 152.567 53.7301 152.567C48.4705 152.567 40.5809 151.909 39.9235 136.13" stroke="#0C2B5F" stroke-width="2.62984"/>
<path d="M13.625 2.00781C19.323 3.54189 32.9544 13.3161 34.0063 37.5107C34.0063 47.3726 34.6638 59.2069 39.9234 99.312C43.4858 126.475 39.266 135.692 39.9234 136.787" stroke="#0C2B5F" stroke-width="2.62984"/>
<path d="M15.5973 2.00781C8.14605 2.22697 -4.25805 8.71392 5.73536 32.9085" stroke="#0C2B5F" stroke-width="2.62984"/>
<path d="M26.1168 32.9084H5.078" stroke="#0C2B5F" stroke-width="2.62984"/>
</svg>
