<svg width="149" height="149" viewBox="0 0 149 149" fill="none" xmlns="http://www.w3.org/2000/svg">
<mask id="path-1-inside-1_37_343" fill="white">
<path d="M107.133 76.3232C109.605 86.601 108.635 97.4061 104.373 107.079C100.11 116.753 92.79 124.76 83.5367 129.87C74.2834 134.981 63.6083 136.914 53.1506 135.371C42.6928 133.828 33.0305 128.896 25.6472 121.331C18.2638 113.766 13.5676 103.986 12.2796 93.494C10.9916 83.0019 13.183 72.377 18.5174 63.2507C23.8517 54.1244 32.0341 47.0012 41.8082 42.9749C51.5823 38.9486 62.4078 38.2417 72.6225 40.9627L72.2331 42.4245C62.3385 39.7887 51.8522 40.4735 42.3844 44.3737C32.9166 48.2738 24.9906 55.1738 19.8234 64.0141C14.6562 72.8544 12.5335 83.1463 13.7811 93.3097C15.0288 103.473 19.5778 112.946 26.7298 120.274C33.8818 127.602 43.2413 132.38 53.3714 133.874C63.5014 135.369 73.8419 133.497 82.8053 128.546C91.7686 123.595 98.8592 115.84 102.988 106.469C107.118 97.0992 108.057 86.6327 105.663 76.6769L107.133 76.3232Z"/>
</mask>
<path d="M107.133 76.3232C109.605 86.601 108.635 97.4061 104.373 107.079C100.11 116.753 92.79 124.76 83.5367 129.87C74.2834 134.981 63.6083 136.914 53.1506 135.371C42.6928 133.828 33.0305 128.896 25.6472 121.331C18.2638 113.766 13.5676 103.986 12.2796 93.494C10.9916 83.0019 13.183 72.377 18.5174 63.2507C23.8517 54.1244 32.0341 47.0012 41.8082 42.9749C51.5823 38.9486 62.4078 38.2417 72.6225 40.9627L72.2331 42.4245C62.3385 39.7887 51.8522 40.4735 42.3844 44.3737C32.9166 48.2738 24.9906 55.1738 19.8234 64.0141C14.6562 72.8544 12.5335 83.1463 13.7811 93.3097C15.0288 103.473 19.5778 112.946 26.7298 120.274C33.8818 127.602 43.2413 132.38 53.3714 133.874C63.5014 135.369 73.8419 133.497 82.8053 128.546C91.7686 123.595 98.8592 115.84 102.988 106.469C107.118 97.0992 108.057 86.6327 105.663 76.6769L107.133 76.3232Z" stroke="white" stroke-width="2.384" mask="url(#path-1-inside-1_37_343)"/>
<circle cx="110.558" cy="38.442" r="37.846" stroke="white" stroke-width="1.192"/>
<circle cx="134.994" cy="89.1019" r="5.066" stroke="white" stroke-width="1.192"/>
<circle cx="60.494" cy="89.1019" r="5.066" stroke="white" stroke-width="1.192"/>
<circle cx="60.494" cy="15.198" r="5.066" stroke="white" stroke-width="1.192"/>
<mask id="path-6-inside-2_37_343" fill="white">
<path d="M118.808 75.0863C121.789 87.8211 120.54 101.18 115.252 113.143C109.964 125.105 100.924 135.019 89.4993 141.386C78.0746 147.753 64.8871 150.226 51.932 148.43C38.9768 146.635 26.9589 140.668 17.6965 131.434C8.43404 122.2 2.43103 110.201 0.595653 97.2513C-1.23972 84.3018 1.1924 71.1068 7.52407 59.6626C13.8557 48.2184 23.7424 39.1477 35.6884 33.8228C47.6343 28.498 60.9895 27.2087 73.7335 30.15L73.3969 31.6083C60.9698 28.7401 47.9466 29.9973 36.2977 35.1898C24.6487 40.3822 15.0078 49.2274 8.8336 60.3871C2.65935 71.5467 0.287697 84.4137 2.07744 97.0413C3.86719 109.669 9.72095 121.37 18.7531 130.375C27.7853 139.379 39.5044 145.197 52.1374 146.948C64.7705 148.699 77.6301 146.287 88.7707 140.079C99.9114 133.87 108.727 124.202 113.883 112.537C119.04 100.873 120.257 87.8456 117.351 75.4273L118.808 75.0863Z"/>
</mask>
<path d="M118.808 75.0863C121.789 87.8211 120.54 101.18 115.252 113.143C109.964 125.105 100.924 135.019 89.4993 141.386C78.0746 147.753 64.8871 150.226 51.932 148.43C38.9768 146.635 26.9589 140.668 17.6965 131.434C8.43404 122.2 2.43103 110.201 0.595653 97.2513C-1.23972 84.3018 1.1924 71.1068 7.52407 59.6626C13.8557 48.2184 23.7424 39.1477 35.6884 33.8228C47.6343 28.498 60.9895 27.2087 73.7335 30.15L73.3969 31.6083C60.9698 28.7401 47.9466 29.9973 36.2977 35.1898C24.6487 40.3822 15.0078 49.2274 8.8336 60.3871C2.65935 71.5467 0.287697 84.4137 2.07744 97.0413C3.86719 109.669 9.72095 121.37 18.7531 130.375C27.7853 139.379 39.5044 145.197 52.1374 146.948C64.7705 148.699 77.6301 146.287 88.7707 140.079C99.9114 133.87 108.727 124.202 113.883 112.537C119.04 100.873 120.257 87.8456 117.351 75.4273L118.808 75.0863Z" stroke="white" stroke-width="2.384" mask="url(#path-6-inside-2_37_343)"/>
<path d="M60.4941 52.746V83.44" stroke="white" stroke-width="1.192"/>
<path d="M63.7725 92.38L80.7585 108.77" stroke="white" stroke-width="1.192"/>
<path d="M134.994 94.4661C134.497 104.399 129.63 127.663 114.134 141.252" stroke="white" stroke-width="1.192"/>
<path d="M55.7262 15.198C50.0642 15.198 22.0522 22.1116 11.3242 35.462" stroke="white" stroke-width="1.192"/>
<path d="M109.28 49.5776V51.496H92.3126V49.7638L101.197 39.6877C102.302 38.4336 103.183 37.3348 103.842 36.3911C104.5 35.435 104.971 34.5658 105.257 33.7836C105.555 32.9889 105.704 32.2191 105.704 31.4741C105.704 30.3814 105.487 29.4191 105.052 28.5872C104.63 27.7553 103.997 27.1034 103.152 26.6316C102.308 26.1598 101.265 25.9238 100.023 25.9238C98.7817 25.9238 97.7015 26.1908 96.7826 26.7247C95.8638 27.2586 95.1561 28.0036 94.6594 28.9597C94.1751 29.9034 93.933 30.9774 93.933 32.1818H91.7166C91.7166 30.6918 92.0457 29.326 92.7038 28.0843C93.3743 26.8427 94.3303 25.8556 95.572 25.123C96.8137 24.378 98.2975 24.0055 100.023 24.0055C101.662 24.0055 103.072 24.2973 104.251 24.8808C105.431 25.452 106.337 26.2777 106.971 27.358C107.616 28.4382 107.939 29.742 107.939 31.2692C107.939 32.0887 107.79 32.9144 107.492 33.7463C107.206 34.5783 106.809 35.4102 106.3 36.2421C105.803 37.0616 105.232 37.8749 104.587 38.682C103.953 39.4891 103.289 40.2837 102.594 41.066L95.0319 49.5776H109.28ZM131.369 42.7422V44.642H112.167V43.3568L124.702 24.378H126.564L123.919 28.9783L114.886 42.7422H131.369ZM127.141 24.378V51.496H124.925V24.378H127.141Z" fill="white"/>
<path d="M42.6143 43.806L44.9983 47.978" stroke="white" stroke-width="1.192"/>
<path d="M27.416 52.7529L31.1998 55.7148" stroke="white" stroke-width="1.192"/>
<path d="M17.2842 66.5256L21.8185 68.1159" stroke="white" stroke-width="1.192"/>
<path d="M12.4141 83.6903L17.2067 84.0357" stroke="white" stroke-width="1.192"/>
<path d="M14.3037 101.175L19.0405 100.368" stroke="white" stroke-width="1.192"/>
<path d="M26.2988 113.97L22.0521 116.219" stroke="white" stroke-width="1.192"/>
<path d="M38.1963 123.968L35.7453 128.101" stroke="white" stroke-width="1.192"/>
<path d="M51.0391 129.928L50.0629 134.633" stroke="white" stroke-width="1.192"/>
<path d="M66.3135 130.213L65.9991 135.007" stroke="white" stroke-width="1.192"/>
<path d="M81.0557 125.756L83.4397 129.928" stroke="white" stroke-width="1.192"/>
<path d="M94.168 113.836L96.552 118.008" stroke="white" stroke-width="1.192"/>
<path d="M99.5322 104.623L104.024 106.33" stroke="white" stroke-width="1.192"/>
<path d="M102.512 89.3828L107.207 90.4053" stroke="white" stroke-width="1.192"/>
<path d="M101.916 80.3256L106.642 79.4565" stroke="white" stroke-width="1.192"/>
<path d="M96.9189 65.5786L100.674 62.5801" stroke="white" stroke-width="1.192"/>
<path d="M89.4004 55.4231L93.7178 53.3139" stroke="white" stroke-width="1.192"/>
<path d="M82.2168 45.296L78.3666 48.1709" stroke="white" stroke-width="1.192"/>
<path d="M66.0654 40.528L65.7639 45.3236" stroke="white" stroke-width="1.192"/>
<path d="M54.4375 40.244L55.2258 44.984" stroke="white" stroke-width="1.192"/>
</svg>
