<svg width="164" height="154" viewBox="0 0 164 154" fill="none" xmlns="http://www.w3.org/2000/svg">
<path d="M76.084 71.6987L83.3161 79.5883L106.327 55.2622" stroke="white" stroke-width="2.62984"/>
<path d="M123.421 43.4279C107.642 45.5318 94.4926 35.5384 89.8904 30.2787C82.0009 43.4279 62.2771 43.4279 57.0174 43.4279C55.0449 90.7651 86.6031 105.229 89.8904 108.517C128.681 84.848 123.421 47.3727 123.421 43.4279Z" stroke="white" stroke-width="2.62984"/>
<path d="M15.5972 2.00845H114.874C120.133 1.35099 131.31 3.98083 133.94 19.7599C134.598 25.0196 140.515 52.6324 141.83 73.6711C143.145 94.7099 144.46 127.583 144.46 129.555" stroke="white" stroke-width="2.62984"/>
<path d="M71.4814 129.555H162.869" stroke="white" stroke-width="2.62984"/>
<path d="M55.0449 152.566H147.747" stroke="white" stroke-width="2.62984"/>
<path d="M147.747 152.566C153.226 152.786 163.658 148.622 161.554 130.213" stroke="white" stroke-width="2.62984"/>
<path d="M72.1389 128.24C73.673 136.13 74.1113 152.566 53.73 152.566C48.4703 152.566 40.5808 151.909 39.9233 136.13" stroke="white" stroke-width="2.62984"/>
<path d="M13.625 2.00781C19.323 3.54189 32.9544 13.3161 34.0063 37.5107C34.0063 47.3726 34.6638 59.2069 39.9234 99.312C43.4858 126.475 39.266 135.692 39.9234 136.787" stroke="white" stroke-width="2.62984"/>
<path d="M15.5972 2.00781C8.14593 2.22697 -4.25817 8.71392 5.73524 32.9085" stroke="white" stroke-width="2.62984"/>
<path d="M26.1169 32.9086H5.07812" stroke="white" stroke-width="2.62984"/>
</svg>
