<svg width="68" height="68" viewBox="0 0 68 68" fill="none" xmlns="http://www.w3.org/2000/svg">
<path d="M26.1001 10.3913V13.9188C26.1004 14.1531 26.1471 14.3849 26.2374 14.6011C26.3277 14.8173 26.4598 15.0134 26.6262 15.1783C26.7926 15.3433 26.9899 15.4736 27.2069 15.562C27.4239 15.6503 27.6562 15.6949 27.8904 15.6932H41.7295C42.2003 15.6932 42.6519 15.5063 42.9851 15.1736C43.3183 14.841 43.5058 14.3896 43.5065 13.9188V10.3913C43.5058 9.92022 43.3184 9.46863 42.9852 9.13552C42.6521 8.80242 42.2006 8.61497 41.7295 8.61427C41.3568 8.61462 40.9878 8.54148 40.6434 8.39904C40.2991 8.25659 39.9862 8.04764 39.7227 7.78415C39.4592 7.52065 39.2503 7.20778 39.1078 6.86343C38.9654 6.51909 38.8922 6.15004 38.8926 5.77739V4.96192C38.8923 4.72766 38.8456 4.49578 38.7553 4.27962C38.665 4.06346 38.5329 3.86728 38.3665 3.70238C38.2001 3.53747 38.0027 3.40709 37.7858 3.31874C37.5688 3.23038 37.3365 3.1858 37.1023 3.18755H32.491C32.0202 3.18755 31.5686 3.37441 31.2354 3.70709C30.9022 4.03977 30.7147 4.49109 30.714 4.96192V5.77739C30.7133 6.52727 30.416 7.24643 29.887 7.77792C29.358 8.3094 28.6403 8.61006 27.8904 8.61427C27.6559 8.61252 27.4234 8.65719 27.2063 8.74571C26.9892 8.83423 26.7917 8.96484 26.6253 9.13003C26.4588 9.29522 26.3268 9.49171 26.2366 9.70818C26.1465 9.92465 26.1001 10.1568 26.1001 10.3913Z" fill="white"/>
<path d="M41.7164 8.61422C41.3438 8.61457 40.9748 8.54143 40.6304 8.39899C40.2861 8.25654 39.9732 8.04759 39.7097 7.7841C39.4462 7.5206 39.2372 7.20773 39.0948 6.86338C38.9524 6.51904 38.8792 6.14999 38.8796 5.77734V4.96188C38.8789 4.49104 38.6913 4.03972 38.3582 3.70704C38.025 3.37436 37.5734 3.1875 37.1025 3.1875H34.9775C35.4484 3.1875 35.9 3.37436 36.2332 3.70704C36.5663 4.03972 36.7539 4.49104 36.7546 4.96188V5.77734C36.7542 6.14999 36.8274 6.51904 36.9698 6.86338C37.1122 7.20773 37.3212 7.5206 37.5847 7.7841C37.8482 8.04759 38.1611 8.25654 38.5054 8.39899C38.8498 8.54143 39.2188 8.61457 39.5914 8.61422C40.0625 8.61492 40.5141 8.80237 40.8472 9.13547C41.1803 9.46858 41.3678 9.92017 41.3685 10.3912V13.9188C41.3678 14.3896 41.1802 14.8409 40.8471 15.1736C40.5139 15.5063 40.0623 15.6931 39.5914 15.6931H41.7164C42.1873 15.6931 42.6389 15.5063 42.9721 15.1736C43.3052 14.8409 43.4928 14.3896 43.4935 13.9188V10.3912C43.4928 9.92017 43.3053 9.46858 42.9722 9.13547C42.6391 8.80237 42.1875 8.61492 41.7164 8.61422Z" fill="white"/>
<path d="M16.8165 64.8125H52.5112C53.0748 64.8125 53.6153 64.5886 54.0138 64.1901C54.4123 63.7916 54.6362 63.2511 54.6362 62.6875V14.8113C54.6362 14.2477 54.4123 13.7072 54.0138 13.3087C53.6153 12.9102 53.0748 12.6863 52.5112 12.6863H43.7589V13.9188C43.7574 14.6712 43.4577 15.3924 42.9255 15.9241C42.3932 16.4559 41.6717 16.755 40.9193 16.7557H27.0935C26.7198 16.7571 26.3496 16.6847 26.0038 16.5429C25.6581 16.401 25.3438 16.1923 25.0788 15.9288C24.8138 15.6653 24.6034 15.3522 24.4596 15.0073C24.3158 14.6624 24.2414 14.2925 24.2407 13.9188V12.6863H16.8032C16.2396 12.6863 15.6991 12.9102 15.3006 13.3087C14.9021 13.7072 14.6782 14.2477 14.6782 14.8113V62.6875C14.6782 62.9677 14.7336 63.2451 14.8412 63.5038C14.9489 63.7625 15.1066 63.9973 15.3053 64.1948C15.504 64.3923 15.7399 64.5486 15.9992 64.6546C16.2586 64.7606 16.5363 64.8143 16.8165 64.8125ZM25.1598 19.7917C25.2092 19.8411 25.2484 19.8997 25.2751 19.9642C25.3018 20.0287 25.3156 20.0978 25.3156 20.1676C25.3156 20.2374 25.3018 20.3066 25.2751 20.371C25.2484 20.4355 25.2092 20.4941 25.1598 20.5435L19.8473 25.856C19.7979 25.9054 19.7394 25.9445 19.6749 25.9713C19.6104 25.998 19.5412 26.0118 19.4714 26.0118C19.4016 26.0118 19.3325 25.998 19.268 25.9713C19.2035 25.9445 19.1449 25.9054 19.0956 25.856L16.4393 23.1997C16.3396 23.1 16.2836 22.9648 16.2836 22.8239C16.2836 22.6829 16.3396 22.5477 16.4393 22.448C16.539 22.3483 16.6742 22.2923 16.8152 22.2923C16.9562 22.2923 17.0914 22.3483 17.191 22.448L19.4728 24.7297L24.4107 19.7917C24.5103 19.6928 24.6449 19.6373 24.7853 19.6373C24.9256 19.6373 25.0602 19.6928 25.1598 19.7917ZM17.191 30.4167L19.4728 32.6985L24.4107 27.7605C24.5104 27.6608 24.6456 27.6048 24.7866 27.6048C24.9276 27.6048 25.0628 27.6608 25.1624 27.7605C25.2621 27.8602 25.3181 27.9954 25.3181 28.1364C25.3181 28.2773 25.2621 28.4125 25.1624 28.5122L19.8499 33.8247C19.8006 33.8741 19.742 33.9133 19.6775 33.94C19.613 33.9668 19.5439 33.9805 19.4741 33.9805C19.4043 33.9805 19.3351 33.9668 19.2706 33.94C19.2062 33.9133 19.1476 33.8741 19.0982 33.8247L16.442 31.1685C16.3423 31.0688 16.2863 30.9336 16.2863 30.7926C16.2863 30.6516 16.3423 30.5164 16.442 30.4167C16.5417 30.3171 16.6769 30.2611 16.8178 30.2611C16.9588 30.2611 17.094 30.3171 17.1937 30.4167H17.191ZM17.191 38.3855L19.4728 40.6672L24.4107 35.7292C24.5104 35.6296 24.6456 35.5736 24.7866 35.5736C24.9276 35.5736 25.0628 35.6296 25.1624 35.7292C25.2621 35.8289 25.3181 35.9641 25.3181 36.1051C25.3181 36.2461 25.2621 36.3813 25.1624 36.481L19.8499 41.7935C19.8006 41.8429 19.742 41.882 19.6775 41.9088C19.613 41.9355 19.5439 41.9493 19.4741 41.9493C19.4043 41.9493 19.3351 41.9355 19.2706 41.9088C19.2062 41.882 19.1476 41.8429 19.0982 41.7935L16.442 39.1372C16.3926 39.0879 16.3535 39.0293 16.3267 38.9648C16.3 38.9003 16.2863 38.8312 16.2863 38.7614C16.2863 38.6204 16.3423 38.4852 16.442 38.3855C16.5417 38.2858 16.6769 38.2298 16.8178 38.2298C16.9588 38.2298 17.094 38.2858 17.1937 38.3855H17.191ZM17.191 46.3542L19.4728 48.636L24.4107 43.698C24.5104 43.5983 24.6456 43.5423 24.7866 43.5423C24.9276 43.5423 25.0628 43.5983 25.1624 43.698C25.2621 43.7977 25.3181 43.9329 25.3181 44.0739C25.3181 44.2148 25.2621 44.35 25.1624 44.4497L19.8499 49.7622C19.8006 49.8116 19.742 49.8508 19.6775 49.8775C19.613 49.9043 19.5439 49.918 19.4741 49.918C19.4043 49.918 19.3351 49.9043 19.2706 49.8775C19.2062 49.8508 19.1476 49.8116 19.0982 49.7622L16.442 47.106C16.3926 47.0566 16.3535 46.998 16.3267 46.9335C16.3 46.869 16.2863 46.7999 16.2863 46.7301C16.2863 46.5891 16.3423 46.4539 16.442 46.3542C16.5417 46.2546 16.6769 46.1986 16.8178 46.1986C16.9588 46.1986 17.094 46.2546 17.1937 46.3542H17.191ZM17.191 54.3017L19.4728 56.5782L24.4107 51.6455C24.5104 51.5458 24.6456 51.4898 24.7866 51.4898C24.9276 51.4898 25.0628 51.5458 25.1624 51.6455C25.2621 51.7452 25.3181 51.8804 25.3181 52.0214C25.3181 52.1623 25.2621 52.2975 25.1624 52.3972L19.8499 57.7097C19.8006 57.7591 19.742 57.7983 19.6775 57.825C19.613 57.8518 19.5439 57.8655 19.4741 57.8655C19.4043 57.8655 19.3351 57.8518 19.2706 57.825C19.2062 57.7983 19.1476 57.7591 19.0982 57.7097L16.442 55.0535C16.3423 54.9538 16.2863 54.8186 16.2863 54.6776C16.2863 54.5366 16.3423 54.4014 16.442 54.3017C16.5417 54.2021 16.6769 54.1461 16.8178 54.1461C16.9588 54.1461 17.094 54.2021 17.1937 54.3017H17.191ZM51.191 23.3538H28.7563C28.6155 23.3538 28.4803 23.2978 28.3807 23.1982C28.2811 23.0986 28.2251 22.9634 28.2251 22.8225C28.2251 22.6816 28.2811 22.5465 28.3807 22.4469C28.4803 22.3472 28.6155 22.2913 28.7563 22.2913H51.1831C51.324 22.2913 51.4591 22.3472 51.5587 22.4469C51.6583 22.5465 51.7143 22.6816 51.7143 22.8225C51.7143 22.9634 51.6583 23.0986 51.5587 23.1982C51.4591 23.2978 51.324 23.3538 51.1831 23.3538H51.191ZM28.7643 30.26H51.191C51.3319 30.26 51.4671 30.316 51.5667 30.4156C51.6663 30.5153 51.7223 30.6504 51.7223 30.7913C51.7223 30.9322 51.6663 31.0673 51.5667 31.1669C51.4671 31.2666 51.3319 31.3225 51.191 31.3225H28.7563C28.6155 31.3225 28.4803 31.2666 28.3807 31.1669C28.2811 31.0673 28.2251 30.9322 28.2251 30.7913C28.2251 30.6504 28.2811 30.5153 28.3807 30.4156C28.4803 30.316 28.6155 30.26 28.7563 30.26H28.7643ZM28.7643 38.2288H51.191C51.3319 38.2288 51.4671 38.2847 51.5667 38.3844C51.6663 38.484 51.7223 38.6191 51.7223 38.76C51.7223 38.9009 51.6663 39.0361 51.5667 39.1357C51.4671 39.2353 51.3319 39.2913 51.191 39.2913H28.7563C28.6155 39.2913 28.4803 39.2353 28.3807 39.1357C28.2811 39.0361 28.2251 38.9009 28.2251 38.76C28.2251 38.6191 28.2811 38.484 28.3807 38.3844C28.4803 38.2847 28.6155 38.2288 28.7563 38.2288H28.7643ZM28.7643 46.1975H51.191C51.3319 46.1975 51.4671 46.2535 51.5667 46.3531C51.6663 46.4528 51.7223 46.5879 51.7223 46.7288C51.7223 46.8697 51.6663 47.0048 51.5667 47.1044C51.4671 47.2041 51.3319 47.26 51.191 47.26H28.7563C28.6155 47.26 28.4803 47.2041 28.3807 47.1044C28.2811 47.0048 28.2251 46.8697 28.2251 46.7288C28.2251 46.5879 28.2811 46.4528 28.3807 46.3531C28.4803 46.2535 28.6155 46.1975 28.7563 46.1975H28.7643ZM28.7643 54.145H51.191C51.3319 54.145 51.4671 54.201 51.5667 54.3006C51.6663 54.4003 51.7223 54.5354 51.7223 54.6763C51.7223 54.8172 51.6663 54.9523 51.5667 55.0519C51.4671 55.1516 51.3319 55.2075 51.191 55.2075H28.7563C28.6155 55.2075 28.4803 55.1516 28.3807 55.0519C28.2811 54.9523 28.2251 54.8172 28.2251 54.6763C28.2251 54.5354 28.2811 54.4003 28.3807 54.3006C28.4803 54.201 28.6155 54.145 28.7563 54.145H28.7643Z" fill="#181A20"/>
<path d="M52.5112 12.6863H51.1831C51.7467 12.6863 52.2872 12.9102 52.6857 13.3087C53.0842 13.7072 53.3081 14.2477 53.3081 14.8113V62.6875C53.3081 63.2511 53.0842 63.7916 52.6857 64.1901C52.2872 64.5886 51.7467 64.8125 51.1831 64.8125H52.5112C53.0748 64.8125 53.6153 64.5886 54.0138 64.1901C54.4123 63.7916 54.6362 63.2511 54.6362 62.6875V14.8113C54.6362 14.2477 54.4123 13.7072 54.0138 13.3087C53.6153 12.9102 53.0748 12.6863 52.5112 12.6863Z" fill="#181A20"/>
<path d="M36.3058 1.99219H31.6945C30.9069 1.99289 30.1517 2.30591 29.5945 2.8626C29.0373 3.4193 28.7236 4.17424 28.7222 4.96187V5.77734C28.7215 6.21021 28.5502 6.62535 28.2453 6.93267C27.9405 7.24 27.5268 7.41471 27.0939 7.41891C26.7024 7.4168 26.3143 7.49216 25.952 7.64062C25.5897 7.78909 25.2603 8.00774 24.9828 8.28399C24.7053 8.56024 24.4852 8.88864 24.3351 9.25029C24.185 9.61194 24.1079 9.9997 24.1083 10.3912V11.4909H15.4888C14.6084 11.4916 13.7643 11.8417 13.1417 12.4642C12.5192 13.0867 12.1692 13.9309 12.1685 14.8112V62.6875C12.1692 63.5679 12.5192 64.412 13.1417 65.0345C13.7643 65.6571 14.6084 66.0071 15.4888 66.0078H52.5116C53.392 66.0071 54.2361 65.6571 54.8586 65.0345C55.4811 64.412 55.8312 63.5679 55.8319 62.6875V14.8112C55.8312 13.9309 55.4811 13.0867 54.8586 12.4642C54.2361 11.8417 53.392 11.4916 52.5116 11.4909H43.8921V10.3912C43.8913 9.60315 43.578 8.84753 43.0207 8.29026C42.4634 7.73299 41.7078 7.41961 40.9197 7.41891C40.704 7.41926 40.4904 7.37703 40.2911 7.29466C40.0918 7.21229 39.9107 7.09139 39.7582 6.93888C39.6057 6.78638 39.4848 6.60528 39.4024 6.40596C39.32 6.20663 39.2778 5.99302 39.2781 5.77734V4.96187C39.2767 4.17424 38.963 3.4193 38.4059 2.8626C37.8487 2.30591 37.0934 1.99289 36.3058 1.99219ZM43.8921 13.9188V12.8191H52.5116C53.0397 12.8198 53.546 13.0299 53.9195 13.4033C54.2929 13.7768 54.5031 14.2831 54.5038 14.8112V62.6875C54.5031 63.2156 54.2929 63.722 53.9195 64.0954C53.546 64.4689 53.0397 64.679 52.5116 64.6797H15.4888C14.9606 64.679 14.4543 64.4689 14.0809 64.0954C13.7074 63.722 13.4973 63.2156 13.4966 62.6875V14.8112C13.4973 14.2831 13.7074 13.7768 14.0809 13.4033C14.4543 13.0299 14.9606 12.8198 15.4888 12.8191H24.1083V13.9188C24.109 14.3099 24.1868 14.697 24.3373 15.0581C24.4878 15.4191 24.708 15.7469 24.9853 16.0227C25.2626 16.2986 25.5916 16.517 25.9534 16.6655C26.3152 16.8141 26.7028 16.8898 27.0939 16.8884H40.933C41.7183 16.8842 42.4701 16.5697 43.0245 16.0133C43.5788 15.457 43.8907 14.7041 43.8921 13.9188ZM40.9197 8.74703C41.3556 8.74773 41.7734 8.92119 42.0816 9.22939C42.3898 9.53759 42.5632 9.95539 42.5639 10.3912V13.9188C42.5632 14.3544 42.3897 14.7719 42.0814 15.0797C41.7731 15.3874 41.3553 15.5603 40.9197 15.5603H27.0939C26.6583 15.5603 26.2405 15.3874 25.9322 15.0797C25.624 14.7719 25.4504 14.3544 25.4497 13.9188V10.3912C25.4497 9.95518 25.6229 9.53696 25.9313 9.22861C26.2396 8.92026 26.6579 8.74703 27.0939 8.74703C27.8813 8.74633 28.6363 8.43323 29.193 7.87645C29.7498 7.31968 30.0629 6.56474 30.0636 5.77734V4.96187C30.0643 4.52626 30.2379 4.10873 30.5461 3.80095C30.8544 3.49318 31.2722 3.32031 31.7078 3.32031H36.3191C36.7547 3.32031 37.1725 3.49318 37.4808 3.80095C37.7891 4.10873 37.9626 4.52626 37.9633 4.96187V5.77734C37.963 6.16743 38.0395 6.55375 38.1886 6.91421C38.3378 7.27466 38.5565 7.60218 38.8323 7.87801C39.1082 8.15384 39.4357 8.37257 39.7961 8.52169C40.1566 8.67081 40.5429 8.74738 40.933 8.74703H40.9197Z" fill="white"/>
<path d="M24.3154 19.6962L19.473 24.5386L17.2869 22.3525C17.1622 22.2278 16.9931 22.1577 16.8168 22.1577C16.6404 22.1577 16.4713 22.2278 16.3466 22.3525C16.2219 22.4772 16.1519 22.6463 16.1519 22.8226C16.1519 22.999 16.2219 23.1681 16.3466 23.2928L19.0029 25.949C19.0645 26.0109 19.1378 26.0599 19.2185 26.0934C19.2992 26.1269 19.3857 26.1441 19.473 26.1441C19.5604 26.1441 19.6468 26.1269 19.7275 26.0934C19.8082 26.0599 19.8815 26.0109 19.9432 25.949L25.2557 20.6365C25.3804 20.5118 25.4504 20.3427 25.4504 20.1664C25.4504 19.99 25.3804 19.8209 25.2557 19.6962C25.131 19.5715 24.9618 19.5015 24.7855 19.5015C24.6092 19.5015 24.44 19.5715 24.3154 19.6962Z" fill="white"/>
<path d="M28.0923 22.8225C28.0923 22.9986 28.1622 23.1675 28.2868 23.2921C28.4113 23.4166 28.5802 23.4866 28.7563 23.4866H51.1831C51.3592 23.4866 51.5281 23.4166 51.6526 23.2921C51.7772 23.1675 51.8471 22.9986 51.8471 22.8225C51.8471 22.6464 51.7772 22.4775 51.6526 22.3529C51.5281 22.2284 51.3592 22.1584 51.1831 22.1584H28.7563C28.5802 22.1584 28.4113 22.2284 28.2868 22.3529C28.1622 22.4775 28.0923 22.6464 28.0923 22.8225Z" fill="white"/>
<path d="M24.3154 27.665L19.473 32.5073L17.2869 30.3212C17.2252 30.2595 17.1519 30.2105 17.0712 30.1771C16.9905 30.1437 16.9041 30.1265 16.8168 30.1265C16.7294 30.1265 16.643 30.1437 16.5623 30.1771C16.4816 30.2105 16.4083 30.2595 16.3466 30.3212C16.2849 30.383 16.2359 30.4563 16.2025 30.5369C16.1691 30.6176 16.1519 30.7041 16.1519 30.7914C16.1519 30.8787 16.1691 30.9651 16.2025 31.0458C16.2359 31.1265 16.2849 31.1998 16.3466 31.2615L19.0029 33.9178C19.0645 33.9796 19.1378 34.0287 19.2185 34.0622C19.2992 34.0956 19.3857 34.1129 19.473 34.1129C19.5604 34.1129 19.6468 34.0956 19.7275 34.0622C19.8082 34.0287 19.8815 33.9796 19.9432 33.9178L25.2557 28.6053C25.3174 28.5435 25.3664 28.4702 25.3998 28.3896C25.4332 28.3089 25.4504 28.2224 25.4504 28.1351C25.4504 28.0478 25.4332 27.9613 25.3998 27.8807C25.3664 27.8 25.3174 27.7267 25.2557 27.665C25.1939 27.6032 25.1206 27.5542 25.04 27.5208C24.9593 27.4874 24.8728 27.4702 24.7855 27.4702C24.6982 27.4702 24.6117 27.4874 24.5311 27.5208C24.4504 27.5542 24.3771 27.6032 24.3154 27.665Z" fill="white"/>
<path d="M51.1831 30.1272H28.7563C28.5802 30.1272 28.4113 30.1972 28.2868 30.3217C28.1622 30.4462 28.0923 30.6151 28.0923 30.7913C28.0923 30.9674 28.1622 31.1363 28.2868 31.2608C28.4113 31.3854 28.5802 31.4553 28.7563 31.4553H51.1831C51.3592 31.4553 51.5281 31.3854 51.6526 31.2608C51.7772 31.1363 51.8471 30.9674 51.8471 30.7913C51.8471 30.6151 51.7772 30.4462 51.6526 30.3217C51.5281 30.1972 51.3592 30.1272 51.1831 30.1272Z" fill="white"/>
<path d="M24.3154 35.6337L19.473 40.4761L17.2869 38.29C17.1622 38.1653 16.9931 38.0952 16.8168 38.0952C16.6404 38.0952 16.4713 38.1653 16.3466 38.29C16.2219 38.4147 16.1519 38.5838 16.1519 38.7601C16.1519 38.9365 16.2219 39.1056 16.3466 39.2303L19.0029 41.8865C19.0645 41.9484 19.1378 41.9974 19.2185 42.0309C19.2992 42.0644 19.3857 42.0816 19.473 42.0816C19.5604 42.0816 19.6468 42.0644 19.7275 42.0309C19.8082 41.9974 19.8815 41.9484 19.9432 41.8865L25.2557 36.574C25.3174 36.5123 25.3664 36.439 25.3998 36.3583C25.4332 36.2776 25.4504 36.1912 25.4504 36.1039C25.4504 36.0166 25.4332 35.9301 25.3998 35.8494C25.3664 35.7688 25.3174 35.6955 25.2557 35.6337C25.1939 35.572 25.1206 35.523 25.04 35.4896C24.9593 35.4562 24.8728 35.439 24.7855 35.439C24.6982 35.439 24.6117 35.4562 24.5311 35.4896C24.4504 35.523 24.3771 35.572 24.3154 35.6337Z" fill="white"/>
<path d="M51.1831 38.0959H28.7563C28.5802 38.0959 28.4113 38.1659 28.2868 38.2904C28.1622 38.415 28.0923 38.5839 28.0923 38.76C28.0923 38.9361 28.1622 39.105 28.2868 39.2296C28.4113 39.3541 28.5802 39.4241 28.7563 39.4241H51.1831C51.3592 39.4241 51.5281 39.3541 51.6526 39.2296C51.7772 39.105 51.8471 38.9361 51.8471 38.76C51.8471 38.5839 51.7772 38.415 51.6526 38.2904C51.5281 38.1659 51.3592 38.0959 51.1831 38.0959Z" fill="white"/>
<path d="M24.3154 43.6025L19.473 48.4448L17.2869 46.2587C17.1622 46.134 16.9931 46.064 16.8168 46.064C16.6404 46.064 16.4713 46.134 16.3466 46.2587C16.2219 46.3834 16.1519 46.5525 16.1519 46.7289C16.1519 46.9052 16.2219 47.0743 16.3466 47.199L19.0029 49.8553C19.0645 49.9171 19.1378 49.9662 19.2185 49.9997C19.2992 50.0331 19.3857 50.0504 19.473 50.0504C19.5604 50.0504 19.6468 50.0331 19.7275 49.9997C19.8082 49.9662 19.8815 49.9171 19.9432 49.8553L25.2557 44.5428C25.3174 44.481 25.3664 44.4077 25.3998 44.3271C25.4332 44.2464 25.4504 44.1599 25.4504 44.0726C25.4504 43.9853 25.4332 43.8988 25.3998 43.8182C25.3664 43.7375 25.3174 43.6642 25.2557 43.6025C25.1939 43.5407 25.1206 43.4917 25.04 43.4583C24.9593 43.4249 24.8728 43.4077 24.7855 43.4077C24.6982 43.4077 24.6117 43.4249 24.5311 43.4583C24.4504 43.4917 24.3771 43.5407 24.3154 43.6025Z" fill="white"/>
<path d="M51.1831 46.0647H28.7563C28.5802 46.0647 28.4113 46.1347 28.2868 46.2592C28.1622 46.3837 28.0923 46.5526 28.0923 46.7288C28.0923 46.9049 28.1622 47.0738 28.2868 47.1983C28.4113 47.3229 28.5802 47.3928 28.7563 47.3928H51.1831C51.3592 47.3928 51.5281 47.3229 51.6526 47.1983C51.7772 47.0738 51.8471 46.9049 51.8471 46.7288C51.8471 46.5526 51.7772 46.3837 51.6526 46.2592C51.5281 46.1347 51.3592 46.0647 51.1831 46.0647Z" fill="white"/>
<path d="M24.3154 51.5497L19.473 56.3921L17.2869 54.206C17.1622 54.0813 16.9931 54.0112 16.8168 54.0112C16.6404 54.0112 16.4713 54.0813 16.3466 54.206C16.2219 54.3307 16.1519 54.4998 16.1519 54.6761C16.1519 54.8525 16.2219 55.0216 16.3466 55.1463L19.0029 57.8025C19.0645 57.8644 19.1378 57.9134 19.2185 57.9469C19.2992 57.9804 19.3857 57.9976 19.473 57.9976C19.5604 57.9976 19.6468 57.9804 19.7275 57.9469C19.8082 57.9134 19.8815 57.8644 19.9432 57.8025L25.2557 52.49C25.3174 52.4283 25.3664 52.355 25.3998 52.2743C25.4332 52.1937 25.4504 52.1072 25.4504 52.0199C25.4504 51.9326 25.4332 51.8461 25.3998 51.7654C25.3664 51.6848 25.3174 51.6115 25.2557 51.5497C25.1939 51.488 25.1206 51.439 25.04 51.4056C24.9593 51.3722 24.8728 51.355 24.7855 51.355C24.6982 51.355 24.6117 51.3722 24.5311 51.4056C24.4504 51.439 24.3771 51.488 24.3154 51.5497Z" fill="white"/>
<path d="M51.1831 54.0122H28.7563C28.5802 54.0122 28.4113 54.0822 28.2868 54.2067C28.1622 54.3312 28.0923 54.5001 28.0923 54.6763C28.0923 54.8524 28.1622 55.0213 28.2868 55.1458C28.4113 55.2704 28.5802 55.3403 28.7563 55.3403H51.1831C51.3592 55.3403 51.5281 55.2704 51.6526 55.1458C51.7772 55.0213 51.8471 54.8524 51.8471 54.6763C51.8471 54.5001 51.7772 54.3312 51.6526 54.2067C51.5281 54.0822 51.3592 54.0122 51.1831 54.0122Z" fill="white"/>
<path d="M62.4219 53.3481H61.3594V52.2856C61.3594 52.2152 61.3314 52.1476 61.2816 52.0978C61.2318 52.048 61.1642 52.02 61.0938 52.02C61.0233 52.02 60.9557 52.048 60.9059 52.0978C60.8561 52.1476 60.8281 52.2152 60.8281 52.2856V53.3481H59.7656C59.6952 53.3481 59.6276 53.3761 59.5778 53.4259C59.528 53.4758 59.5 53.5433 59.5 53.6138C59.5 53.6842 59.528 53.7518 59.5778 53.8016C59.6276 53.8514 59.6952 53.8794 59.7656 53.8794H60.8281V54.9419C60.8281 55.0123 60.8561 55.0799 60.9059 55.1297C60.9557 55.1795 61.0233 55.2075 61.0938 55.2075C61.1642 55.2075 61.2318 55.1795 61.2816 55.1297C61.3314 55.0799 61.3594 55.0123 61.3594 54.9419V53.8794H62.4219C62.4923 53.8794 62.5599 53.8514 62.6097 53.8016C62.6595 53.7518 62.6875 53.6842 62.6875 53.6138C62.6875 53.5433 62.6595 53.4758 62.6097 53.4259C62.5599 53.3761 62.4923 53.3481 62.4219 53.3481Z" fill="white"/>
<path d="M48.543 9.21191C48.2278 9.21191 47.9196 9.11844 47.6575 8.94332C47.3954 8.7682 47.1912 8.51929 47.0705 8.22807C46.9499 7.93685 46.9183 7.6164 46.9798 7.30724C47.0413 6.99808 47.1931 6.7141 47.416 6.49121C47.6389 6.26832 47.9229 6.11653 48.232 6.05504C48.5412 5.99354 48.8616 6.0251 49.1529 6.14573C49.4441 6.26636 49.693 6.47063 49.8681 6.73272C50.0432 6.99482 50.1367 7.30295 50.1367 7.61816C50.1367 8.04085 49.9688 8.44623 49.6699 8.74512C49.371 9.044 48.9657 9.21191 48.543 9.21191ZM48.543 6.55566C48.3328 6.55566 48.1274 6.61798 47.9527 6.73473C47.7779 6.85148 47.6418 7.01742 47.5613 7.21156C47.4809 7.40571 47.4599 7.61934 47.5009 7.82545C47.5419 8.03155 47.6431 8.22087 47.7917 8.36947C47.9403 8.51806 48.1296 8.61925 48.3357 8.66025C48.5418 8.70125 48.7554 8.68021 48.9496 8.59979C49.1437 8.51937 49.3097 8.38319 49.4264 8.20846C49.5432 8.03373 49.6055 7.82831 49.6055 7.61816C49.6055 7.33637 49.4935 7.06612 49.2943 6.86686C49.095 6.66761 48.8248 6.55566 48.543 6.55566Z" fill="white"/>
<path d="M61.0937 23.7522C60.7785 23.7522 60.4704 23.6587 60.2083 23.4836C59.9462 23.3085 59.7419 23.0596 59.6213 22.7684C59.5007 22.4771 59.4691 22.1567 59.5306 21.8475C59.5921 21.5384 59.7439 21.2544 59.9668 21.0315C60.1897 20.8086 60.4737 20.6568 60.7828 20.5953C61.092 20.5338 61.4124 20.5654 61.7036 20.686C61.9949 20.8066 62.2438 21.0109 62.4189 21.273C62.594 21.5351 62.6875 21.8432 62.6875 22.1584C62.6875 22.5811 62.5196 22.9865 62.2207 23.2854C61.9218 23.5843 61.5164 23.7522 61.0937 23.7522ZM61.0937 21.0959C60.8836 21.0959 60.6782 21.1583 60.5035 21.275C60.3287 21.3918 60.1925 21.5577 60.1121 21.7518C60.0317 21.946 60.0107 22.1596 60.0517 22.3657C60.0927 22.5718 60.1939 22.7612 60.3424 22.9097C60.491 23.0583 60.6804 23.1595 60.8865 23.2005C61.0926 23.2415 61.3062 23.2205 61.5003 23.1401C61.6945 23.0597 61.8604 22.9235 61.9772 22.7487C62.0939 22.574 62.1562 22.3686 62.1562 22.1584C62.1562 21.8767 62.0443 21.6064 61.8451 21.4071C61.6458 21.2079 61.3755 21.0959 61.0937 21.0959Z" fill="white"/>
<path d="M10.3594 40.9993H9.67141L10.1575 40.5132C10.201 40.4624 10.2238 40.397 10.2212 40.3301C10.2186 40.2633 10.1909 40.1999 10.1436 40.1526C10.0963 40.1053 10.0329 40.0775 9.966 40.075C9.89915 40.0724 9.83378 40.0951 9.78297 40.1386L9.29688 40.6247V39.9368C9.29688 39.8663 9.26889 39.7988 9.21908 39.7489C9.16926 39.6991 9.1017 39.6711 9.03125 39.6711C8.9608 39.6711 8.89324 39.6991 8.84342 39.7489C8.79361 39.7988 8.76562 39.8663 8.76562 39.9368V40.6247L8.27953 40.1386C8.22872 40.0951 8.16335 40.0724 8.0965 40.075C8.02965 40.0775 7.96623 40.1053 7.91893 40.1526C7.87162 40.1999 7.84391 40.2633 7.84133 40.3301C7.83874 40.397 7.86148 40.4624 7.905 40.5132L8.39109 40.9993H7.70312C7.63268 40.9993 7.56511 41.0273 7.5153 41.0771C7.46549 41.1269 7.4375 41.1944 7.4375 41.2649C7.4375 41.3353 7.46549 41.4029 7.5153 41.4527C7.56511 41.5025 7.63268 41.5305 7.70312 41.5305H8.39109L7.905 42.0166C7.86148 42.0674 7.83874 42.1328 7.84133 42.1996C7.84391 42.2665 7.87162 42.3299 7.91893 42.3772C7.96623 42.4245 8.02965 42.4522 8.0965 42.4548C8.16335 42.4574 8.22872 42.4347 8.27953 42.3911L8.76562 41.9077V42.5957C8.76562 42.6661 8.79361 42.7337 8.84342 42.7835C8.89324 42.8333 8.9608 42.8613 9.03125 42.8613C9.1017 42.8613 9.16926 42.8333 9.21908 42.7835C9.26889 42.7337 9.29688 42.6661 9.29688 42.5957V41.9077L9.78297 42.3938C9.83378 42.4373 9.89915 42.4601 9.966 42.4575C10.0329 42.4549 10.0963 42.4272 10.1436 42.3799C10.1909 42.3326 10.2186 42.2691 10.2212 42.2023C10.2238 42.1354 10.201 42.0701 10.1575 42.0193L9.67141 41.5332H10.3594C10.4298 41.5332 10.4974 41.5052 10.5472 41.4554C10.597 41.4056 10.625 41.338 10.625 41.2675C10.625 41.1971 10.597 41.1295 10.5472 41.0797C10.4974 41.0299 10.4298 41.0019 10.3594 41.0019V40.9993Z" fill="white"/>
</svg>
