<svg width="170" height="163" viewBox="0 0 170 163" fill="none" xmlns="http://www.w3.org/2000/svg">
<path d="M100.178 130.779H69.8391C66.2222 130.779 63.29 133.711 63.29 137.328V153.177C63.29 156.794 66.2222 159.726 69.8391 159.726H100.178C103.795 159.726 106.727 156.794 106.727 153.177V137.328C106.727 133.711 103.795 130.779 100.178 130.779Z" stroke="white" stroke-width="2.91071" stroke-linecap="round" stroke-linejoin="round"/>
<path d="M85.0002 113.881C88.3611 113.881 91.5844 115.217 93.961 117.593C96.3375 119.97 97.6727 123.193 97.6727 126.554V130.778H72.3276V126.554C72.3276 123.193 73.6628 119.97 76.0393 117.593C78.4159 115.217 81.6392 113.881 85.0002 113.881Z" stroke="white" stroke-width="2.91071" stroke-linecap="round" stroke-linejoin="round"/>
<path d="M84.9999 146.463C87.6674 146.463 89.8299 144.301 89.8299 141.633C89.8299 138.966 87.6674 136.803 84.9999 136.803C82.3324 136.803 80.1699 138.966 80.1699 141.633C80.1699 144.301 82.3324 146.463 84.9999 146.463Z" fill="#65A4D6"/>
<path d="M85 148.869V139.209" stroke="#65A4D6" stroke-width="1.00755" stroke-linecap="round" stroke-linejoin="round"/>
<mask id="path-5-inside-1_85_311" fill="white">
<path d="M139.688 76.7064C144.976 77.9522 149.941 80.301 154.257 83.5989C158.574 86.8969 162.146 91.0696 164.738 95.8437C167.33 100.618 168.884 105.886 169.298 111.302C169.713 116.719 168.978 122.162 167.143 127.275C165.308 132.388 162.413 137.055 158.649 140.972C154.884 144.888 150.335 147.965 145.298 150.001C140.262 152.037 134.852 152.986 129.423 152.786C123.994 152.586 118.669 151.242 113.796 148.84L115.587 145.207C119.948 147.356 124.714 148.56 129.572 148.739C134.431 148.918 139.273 148.069 143.78 146.247C148.288 144.424 152.359 141.67 155.729 138.165C159.098 134.66 161.689 130.483 163.331 125.907C164.974 121.331 165.631 116.459 165.26 111.611C164.889 106.764 163.498 102.049 161.178 97.7762C158.858 93.5034 155.662 89.7689 151.799 86.8173C147.935 83.8657 143.492 81.7636 138.759 80.6486L139.688 76.7064Z"/>
</mask>
<path d="M139.688 76.7064C144.976 77.9522 149.941 80.301 154.257 83.5989C158.574 86.8969 162.146 91.0696 164.738 95.8437C167.33 100.618 168.884 105.886 169.298 111.302C169.713 116.719 168.978 122.162 167.143 127.275C165.308 132.388 162.413 137.055 158.649 140.972C154.884 144.888 150.335 147.965 145.298 150.001C140.262 152.037 134.852 152.986 129.423 152.786C123.994 152.586 118.669 151.242 113.796 148.84L115.587 145.207C119.948 147.356 124.714 148.56 129.572 148.739C134.431 148.918 139.273 148.069 143.78 146.247C148.288 144.424 152.359 141.67 155.729 138.165C159.098 134.66 161.689 130.483 163.331 125.907C164.974 121.331 165.631 116.459 165.26 111.611C164.889 106.764 163.498 102.049 161.178 97.7762C158.858 93.5034 155.662 89.7689 151.799 86.8173C147.935 83.8657 143.492 81.7636 138.759 80.6486L139.688 76.7064Z" stroke="white" stroke-width="5.82143" mask="url(#path-5-inside-1_85_311)"/>
<mask id="path-6-inside-2_85_311" fill="white">
<path d="M30.3118 72.3403C25.0242 73.5861 20.0594 75.9349 15.7426 79.2329C11.4258 82.5308 7.85448 86.7035 5.26248 91.4777C2.67047 96.2518 1.11628 101.52 0.701706 106.936C0.287132 112.353 1.02153 117.796 2.8568 122.909C4.69206 128.022 7.58678 132.689 11.3514 136.606C15.116 140.522 19.6655 143.599 24.7019 145.635C29.7384 147.671 35.1481 148.62 40.5768 148.42C46.0055 148.22 51.3307 146.875 56.2036 144.474L54.4134 140.841C50.0522 142.99 45.2862 144.194 40.4276 144.373C35.569 144.552 30.7274 143.703 26.2198 141.88C21.7123 140.058 17.6406 137.304 14.2713 133.799C10.9021 130.294 8.31133 126.117 6.6688 121.541C5.02627 116.964 4.369 112.093 4.74003 107.245C5.11107 102.398 6.50204 97.6829 8.82185 93.4101C11.1417 89.1373 14.338 85.4028 18.2014 82.4512C22.0648 79.4996 26.5082 77.3975 31.2406 76.2825L30.3118 72.3403Z"/>
</mask>
<path d="M30.3118 72.3403C25.0242 73.5861 20.0594 75.9349 15.7426 79.2329C11.4258 82.5308 7.85448 86.7035 5.26248 91.4777C2.67047 96.2518 1.11628 101.52 0.701706 106.936C0.287132 112.353 1.02153 117.796 2.8568 122.909C4.69206 128.022 7.58678 132.689 11.3514 136.606C15.116 140.522 19.6655 143.599 24.7019 145.635C29.7384 147.671 35.1481 148.62 40.5768 148.42C46.0055 148.22 51.3307 146.875 56.2036 144.474L54.4134 140.841C50.0522 142.99 45.2862 144.194 40.4276 144.373C35.569 144.552 30.7274 143.703 26.2198 141.88C21.7123 140.058 17.6406 137.304 14.2713 133.799C10.9021 130.294 8.31133 126.117 6.6688 121.541C5.02627 116.964 4.369 112.093 4.74003 107.245C5.11107 102.398 6.50204 97.6829 8.82185 93.4101C11.1417 89.1373 14.338 85.4028 18.2014 82.4512C22.0648 79.4996 26.5082 77.3975 31.2406 76.2825L30.3118 72.3403Z" stroke="white" stroke-width="5.82143" mask="url(#path-6-inside-2_85_311)"/>
<mask id="path-7-inside-3_85_311" fill="white">
<path d="M27.3325 73.9805C26.9639 65.8505 28.317 57.7343 31.3032 50.1636C34.2893 42.5928 38.8412 35.7383 44.6606 30.0491C50.48 24.3598 57.4357 19.9642 65.072 17.15C72.7083 14.3358 80.853 13.1666 88.9726 13.719C97.0922 14.2714 105.004 16.5328 112.188 20.3553C119.373 24.1777 125.669 29.4749 130.665 35.8999C135.66 42.3249 139.242 49.7327 141.175 57.6381C143.108 65.5435 143.35 73.7681 141.883 81.7733L138.058 81.0726C139.425 73.6063 139.2 65.9353 137.397 58.562C135.594 51.1888 132.253 44.2797 127.594 38.2872C122.935 32.2947 117.063 27.3541 110.362 23.789C103.66 20.2238 96.2817 18.1146 88.7086 17.5994C81.1356 17.0842 73.5392 18.1747 66.4169 20.7994C59.2946 23.4242 52.8072 27.5239 47.3795 32.8302C41.9519 38.1365 37.7064 44.5296 34.9213 51.5907C32.1361 58.6517 30.8741 66.2216 31.2179 73.8043L27.3325 73.9805Z"/>
</mask>
<path d="M27.3325 73.9805C26.9639 65.8505 28.317 57.7343 31.3032 50.1636C34.2893 42.5928 38.8412 35.7383 44.6606 30.0491C50.48 24.3598 57.4357 19.9642 65.072 17.15C72.7083 14.3358 80.853 13.1666 88.9726 13.719C97.0922 14.2714 105.004 16.5328 112.188 20.3553C119.373 24.1777 125.669 29.4749 130.665 35.8999C135.66 42.3249 139.242 49.7327 141.175 57.6381C143.108 65.5435 143.35 73.7681 141.883 81.7733L138.058 81.0726C139.425 73.6063 139.2 65.9353 137.397 58.562C135.594 51.1888 132.253 44.2797 127.594 38.2872C122.935 32.2947 117.063 27.3541 110.362 23.789C103.66 20.2238 96.2817 18.1146 88.7086 17.5994C81.1356 17.0842 73.5392 18.1747 66.4169 20.7994C59.2946 23.4242 52.8072 27.5239 47.3795 32.8302C41.9519 38.1365 37.7064 44.5296 34.9213 51.5907C32.1361 58.6517 30.8741 66.2216 31.2179 73.8043L27.3325 73.9805Z" stroke="white" stroke-width="5.82143" mask="url(#path-7-inside-3_85_311)"/>
</svg>
