<svg width="144" height="174" viewBox="0 0 144 174" fill="none" xmlns="http://www.w3.org/2000/svg">
<path d="M142.341 29.3398C119.303 31.6435 85.8444 11.9247 71.9946 1.77734C57.185 19.2199 18.6524 27.42 1.2373 29.3398V100.097C1.2373 113.261 3.2942 121.489 6.99662 127.248C29.2111 156.868 64.1784 169.209 71.9946 172.5C88.8612 165.095 126.297 140.412 134.524 127.248C138.843 120.339 142.066 106.679 142.341 100.097C142.615 78.4311 142.999 33.9473 142.341 29.3398Z" stroke="white" stroke-width="1.64552"/>
<path d="M128.06 38.0799C109.436 39.9451 82.3878 23.98 71.1914 15.7643C59.2191 29.8864 28.0688 36.5256 13.9902 38.0799V95.3678C13.9902 106.026 15.6531 112.687 18.6461 117.35C36.6047 141.331 64.8727 151.323 71.1914 153.988C84.8266 147.993 115.09 128.009 121.741 117.35C125.232 111.756 127.838 100.697 128.06 95.3678C128.282 77.8261 128.592 41.8103 128.06 38.0799Z" stroke="white" stroke-width="1.64552"/>
<circle cx="71.1719" cy="84.4647" r="31.6763" stroke="white" stroke-width="1.64552"/>
<path d="M50.1914 93.1037L58.0076 101.331L89.2725 69.655" stroke="white" stroke-width="1.64552"/>
</svg>
