<svg width="131" height="131" viewBox="0 0 131 131" fill="none" xmlns="http://www.w3.org/2000/svg">
<mask id="path-1-inside-1_37_324" fill="white">
<path d="M121.225 39.6309C127.309 52.8336 128.52 67.7648 124.642 81.7753C120.764 95.7857 112.049 107.97 100.042 116.165C88.0351 124.361 73.5133 128.038 59.053 126.545C44.5927 125.052 31.1288 118.485 21.0502 108.008L22.8593 106.268C32.5266 116.316 45.4408 122.616 59.3109 124.048C73.1809 125.48 87.1099 121.953 98.6266 114.092C110.143 106.231 118.503 94.5442 122.222 81.1056C125.942 67.667 124.781 53.3454 118.945 40.6816L121.225 39.6309Z"/>
</mask>
<path d="M121.225 39.6309C127.309 52.8336 128.52 67.7648 124.642 81.7753C120.764 95.7857 112.049 107.97 100.042 116.165C88.0351 124.361 73.5133 128.038 59.053 126.545C44.5927 125.052 31.1288 118.485 21.0502 108.008L22.8593 106.268C32.5266 116.316 45.4408 122.616 59.3109 124.048C73.1809 125.48 87.1099 121.953 98.6266 114.092C110.143 106.231 118.503 94.5442 122.222 81.1056C125.942 67.667 124.781 53.3454 118.945 40.6816L121.225 39.6309Z" fill="#D9D9D9" stroke="white" stroke-width="4" mask="url(#path-1-inside-1_37_324)"/>
<mask id="path-2-inside-2_37_324" fill="white">
<path d="M11.3089 94.6892C4.37864 81.9103 2.19921 67.0895 5.1573 52.8564C8.11538 38.6233 16.0197 25.8983 27.4679 16.9389C38.916 7.97957 53.1678 3.36522 67.6946 3.91457C82.2215 4.46392 96.084 10.1414 106.823 19.9398L105.131 21.7943C94.8303 12.3959 81.5336 6.95014 67.5998 6.42322C53.6659 5.8963 39.9959 10.3223 29.0151 18.9159C18.0342 27.5095 10.4526 39.7152 7.61522 53.3672C4.77789 67.0193 6.86835 81.2351 13.5157 93.4924L11.3089 94.6892Z"/>
</mask>
<path d="M11.3089 94.6892C4.37864 81.9103 2.19921 67.0895 5.1573 52.8564C8.11538 38.6233 16.0197 25.8983 27.4679 16.9389C38.916 7.97957 53.1678 3.36522 67.6946 3.91457C82.2215 4.46392 96.084 10.1414 106.823 19.9398L105.131 21.7943C94.8303 12.3959 81.5336 6.95014 67.5998 6.42322C53.6659 5.8963 39.9959 10.3223 29.0151 18.9159C18.0342 27.5095 10.4526 39.7152 7.61522 53.3672C4.77789 67.0193 6.86835 81.2351 13.5157 93.4924L11.3089 94.6892Z" fill="#D9D9D9" stroke="white" stroke-width="4" mask="url(#path-2-inside-2_37_324)"/>
<path d="M35.8701 103.37L22.2328 107.267C22.0181 107.328 21.8701 107.524 21.8701 107.748V121.87" stroke="white" stroke-width="2"/>
<path d="M91.3709 23.3698L105.979 21.0999C106.223 21.0621 106.402 20.8524 106.402 20.6059L106.402 6.87036" stroke="white" stroke-width="2"/>
<path d="M72.3701 49.3704L87.5107 64.511C87.7082 64.7085 87.7056 65.0296 87.5049 65.2238L72.3701 79.8704" stroke="white" stroke-width="2"/>
<path d="M51.3701 48.8704L36.2295 64.011C36.032 64.2085 36.0346 64.5296 36.2354 64.7238L51.3701 79.3704" stroke="white" stroke-width="2"/>
</svg>
