<svg width="121" height="146" viewBox="0 0 121 146" fill="none" xmlns="http://www.w3.org/2000/svg">
<circle cx="84.5" cy="101.5" r="35.5" stroke="white" stroke-width="2"/>
<path d="M71.405 62.9765C70.7036 57.1269 67.8798 51.7382 63.4693 47.8323C59.0587 43.9263 53.3681 41.7748 47.4767 41.7858C46.9847 41.7802 46.4965 41.8723 46.0404 42.0569C45.5843 42.2415 45.1694 42.5149 44.8199 42.8612C44.4704 43.2075 44.1931 43.6198 44.0042 44.0741C43.8154 44.5285 43.7187 45.0158 43.7197 45.5078C43.7208 45.9999 43.8196 46.4868 44.0104 46.9403C44.2012 47.3938 44.4802 47.8049 44.8312 48.1497C45.1823 48.4945 45.5983 48.7661 46.0552 48.9488C46.512 49.1314 47.0006 49.2215 47.4926 49.2137C51.5641 49.2065 55.4968 50.6936 58.5448 53.3929C61.5929 56.0923 63.5445 59.8162 64.0297 63.8588C64.147 64.8371 64.6482 65.7288 65.423 66.3376C66.1978 66.9464 67.1827 67.2225 68.161 67.1051C69.1393 66.9878 70.031 66.4866 70.6398 65.7118C71.2486 64.937 71.5247 63.9522 71.4074 62.9738L71.405 62.9765Z" fill="white"/>
<path d="M73.5808 36.4111C66.1241 29.7892 56.4226 26.2606 46.4541 26.5447C45.9596 26.5475 45.4707 26.649 45.016 26.8433C44.5613 27.0375 44.1499 27.3206 43.8061 27.6759C43.4622 28.0312 43.1928 28.4516 43.0135 28.9125C42.8342 29.3733 42.7488 29.8653 42.7622 30.3596C42.7756 30.8539 42.8875 31.3405 43.0915 31.7909C43.2954 32.2414 43.5872 32.6466 43.9498 32.9828C44.3124 33.3189 44.7385 33.5793 45.2031 33.7487C45.6677 33.918 46.1613 33.9929 46.6552 33.9689C54.7382 33.7508 62.6023 36.6116 68.6557 41.9725C74.7091 47.3333 78.4998 54.7938 79.2606 62.8438C79.2965 63.337 79.4306 63.818 79.6548 64.2587C79.8791 64.6994 80.1891 65.0908 80.5667 65.4101C80.9442 65.7294 81.3817 65.9701 81.8535 66.1181C82.3253 66.2661 82.8219 66.3184 83.3142 66.2719C83.8065 66.2254 84.2845 66.0811 84.7203 65.8475C85.1561 65.6138 85.5408 65.2955 85.8519 64.9112C86.1631 64.5269 86.3943 64.0843 86.5322 63.6095C86.67 63.1346 86.7117 62.637 86.6547 62.1458C85.7314 52.2161 81.0557 43.0124 73.5808 36.4111Z" fill="white"/>
<path d="M101.74 59.4957C100.167 46.1676 93.7447 33.8842 83.6975 24.9865C73.6503 16.0889 60.6806 11.199 47.26 11.2489C46.7651 11.2401 46.2734 11.3302 45.8139 11.5141C45.3543 11.698 44.9362 11.9718 44.5839 12.3196C44.2317 12.6674 43.9526 13.082 43.7629 13.5392C43.5732 13.9964 43.4768 14.4869 43.4794 14.9818C43.4819 15.4768 43.5834 15.9663 43.7778 16.4215C43.9722 16.8767 44.2556 17.2884 44.6114 17.6325C44.9672 17.9766 45.3882 18.2462 45.8496 18.4253C46.311 18.6044 46.8036 18.6894 47.2984 18.6755C58.8913 18.6349 70.0941 22.8599 78.773 30.5459C87.452 38.2318 93.0005 48.8416 94.3619 60.3544C94.4763 61.3329 94.9747 62.2259 95.7475 62.837C96.5203 63.448 97.5042 63.727 98.4827 63.6127C99.4613 63.4983 100.354 62.9999 100.965 62.2271C101.576 61.4543 101.855 60.4704 101.741 59.4919L101.74 59.4957Z" fill="white"/>
<path d="M45.2372 68.4163C47.5774 70.4887 51.1545 70.2717 53.2269 67.9315C55.2993 65.5914 55.0822 62.0143 52.7421 59.9419C50.4019 57.8695 46.8249 58.0865 44.7525 60.4267C42.6801 62.7668 42.8971 66.3439 45.2372 68.4163Z" fill="white"/>
<path d="M45.2372 142.227C47.5774 144.299 51.1545 144.082 53.2269 141.742C55.2993 139.402 55.0822 135.825 52.7421 133.752C50.4019 131.68 46.8249 131.897 44.7525 134.237C42.6801 136.577 42.8971 140.154 45.2372 142.227Z" fill="white"/>
<path d="M4.23725 69.2269C6.5774 71.2993 10.1545 71.0822 12.2269 68.7421C14.2993 66.4019 14.0822 62.8248 11.7421 60.7524C9.40195 58.68 5.82486 58.8971 3.75246 61.2372C1.68005 63.5774 1.8971 67.1544 4.23725 69.2269Z" fill="white"/>
<path d="M4.23725 140.227C6.5774 142.299 10.1545 142.082 12.2269 139.742C14.2993 137.402 14.0822 133.825 11.7421 131.752C9.40195 129.68 5.82486 129.897 3.75246 132.237C1.68005 134.577 1.8971 138.154 4.23725 140.227Z" fill="white"/>
<path d="M49 68V137L8 65V137" stroke="white" stroke-width="2"/>
<path d="M95.4288 97.86H74.5825C72.0972 97.86 70.0825 99.8747 70.0825 102.36V113.25C70.0825 115.735 72.0972 117.75 74.5825 117.75H95.4288C97.9141 117.75 99.9288 115.735 99.9288 113.25V102.36C99.9288 99.8747 97.9141 97.86 95.4288 97.86Z" stroke="white" stroke-width="2" stroke-linecap="round" stroke-linejoin="round"/>
<path d="M85 86.25C87.3094 86.25 89.5241 87.1674 91.1571 88.8004C92.7901 90.4333 93.7075 92.6481 93.7075 94.9575V97.86H76.2925V94.9575C76.2925 92.6481 77.2099 90.4333 78.8428 88.8004C80.4758 87.1674 82.6906 86.25 85 86.25Z" stroke="white" stroke-width="2" stroke-linecap="round" stroke-linejoin="round"/>
<path d="M84.9999 108.637C86.8328 108.637 88.3187 107.152 88.3187 105.319C88.3187 103.486 86.8328 102 84.9999 102C83.167 102 81.6812 103.486 81.6812 105.319C81.6812 107.152 83.167 108.637 84.9999 108.637Z" fill="#65A4D6"/>
<path d="M85 110.291V103.654" stroke="#65A4D6" stroke-width="0.692308" stroke-linecap="round" stroke-linejoin="round"/>
</svg>
