<svg width="130" height="120" viewBox="0 0 130 120" fill="none" xmlns="http://www.w3.org/2000/svg">
<path d="M129 69.5H76V104.5H129V69.5Z" stroke="white" stroke-width="2"/>
<path d="M66.5 45.5H112" stroke="white" stroke-width="2"/>
<path d="M75.5 54H111.5" stroke="white" stroke-width="2"/>
<path d="M24 101V42" stroke="white" stroke-width="2"/>
<path d="M42 119H116H121V106.5" stroke="white" stroke-width="2"/>
<path d="M122 68V1H25V19" stroke="white" stroke-width="2"/>
<rect x="59.5" y="9.5" width="50" height="26" stroke="white" stroke-width="2"/>
<path d="M76.5 70L98.5 89C100.5 90.6667 105.2 93 108 89C108.4 88.2 121.833 76 128.5 70" stroke="white" stroke-width="2"/>
<path d="M76 104.5L95 87.5" stroke="white" stroke-width="2"/>
<path d="M129 103.5L110.5 87.5" stroke="white" stroke-width="2"/>
<path d="M43 61L57 64L54.5 50M43 61L6.5 24.5M43 61L48.75 55.5M54.5 50L18 14.3795M54.5 50L48.75 55.5M6.5 24.5L3.5 21.5L2 19.5L13 9.5L18 14.3795M6.5 24.5L12.25 19.4398M18 14.3795L12.25 19.4398M12.25 19.4398L48.75 55.5" stroke="white" stroke-width="2"/>
<path d="M38.5 100H25.1853C24.7429 100 24.5185 100.532 24.8272 100.849L42.2747 118.756C42.5671 119.056 43.0651 118.884 43.094 118.466C43.2309 116.486 43.3268 112.555 43 107C42.6 100.2 40.5 99.9999 38.5 100Z" stroke="white" stroke-width="2"/>
</svg>
