<svg width="104" height="104" viewBox="0 0 104 104" fill="none" xmlns="http://www.w3.org/2000/svg">
<path d="M82.1278 40.0403H21.9053C14.7256 40.0403 8.90527 45.8606 8.90527 53.0403V84.5003C8.90527 91.68 14.7256 97.5003 21.9053 97.5003H82.1278C89.3075 97.5003 95.1278 91.68 95.1278 84.5003V53.0403C95.1278 45.8606 89.3075 40.0403 82.1278 40.0403Z" stroke="white" stroke-width="2" stroke-linecap="round" stroke-linejoin="round"/>
<path d="M51.9997 6.5C58.6712 6.5 65.0695 9.15025 69.787 13.8677C74.5045 18.5852 77.1547 24.9835 77.1547 31.655V40.04H26.8447V31.655C26.8447 24.9835 29.495 18.5852 34.2125 13.8677C38.9299 9.15025 45.3282 6.5 51.9997 6.5Z" stroke="white" stroke-width="2" stroke-linecap="round" stroke-linejoin="round"/>
<path d="M51.9996 71.175C57.2946 71.175 61.5871 66.8825 61.5871 61.5875C61.5871 56.2925 57.2946 52 51.9996 52C46.7046 52 42.4121 56.2925 42.4121 61.5875C42.4121 66.8825 46.7046 71.175 51.9996 71.175Z" fill="white"/>
<path d="M52 75.9523V56.7773" stroke="white" stroke-width="2" stroke-linecap="round" stroke-linejoin="round"/>
</svg>
