<svg width="64" height="64" viewBox="0 0 64 64" fill="none" xmlns="http://www.w3.org/2000/svg">
<path d="M57 10H7C5.9 10 5 10.901 5 12.001V22.001V52.001C5 53.101 5.9 54 7 54H57C58.1 54 59 53.101 59 52.001V22.001V12.001C59 10.901 58.1 10 57 10ZM6 12.001C6 11.449 6.448 11 7 11H57C57.552 11 58 11.449 58 12.001V21H6V12.001ZM58 52.001C58 52.553 57.552 53 57 53H7C6.448 53 6 52.553 6 52.001V22H58V52.001Z" fill="white"/>
<path d="M11 13.501C9.619 13.501 8.5 14.62 8.5 16.001C8.5 17.382 9.619 18.501 11 18.501C12.381 18.501 13.5 17.382 13.5 16.001C13.5 14.62 12.381 13.501 11 13.501ZM11 17.501C10.173 17.501 9.5 16.828 9.5 16.001C9.5 15.174 10.173 14.501 11 14.501C11.827 14.501 12.5 15.174 12.5 16.001C12.5 16.828 11.827 17.501 11 17.501Z" fill="white"/>
<path d="M17 13.501C15.619 13.501 14.5 14.62 14.5 16.001C14.5 17.382 15.619 18.501 17 18.501C18.381 18.501 19.5 17.382 19.5 16.001C19.5 14.62 18.381 13.501 17 13.501ZM17 17.501C16.173 17.501 15.5 16.828 15.5 16.001C15.5 15.174 16.173 14.501 17 14.501C17.827 14.501 18.5 15.174 18.5 16.001C18.5 16.828 17.827 17.501 17 17.501Z" fill="white"/>
<path d="M23 13.501C21.619 13.501 20.5 14.62 20.5 16.001C20.5 17.382 21.619 18.501 23 18.501C24.381 18.501 25.5 17.382 25.5 16.001C25.5 14.62 24.381 13.501 23 13.501ZM23 17.501C22.173 17.501 21.5 16.828 21.5 16.001C21.5 15.174 22.173 14.501 23 14.501C23.827 14.501 24.5 15.174 24.5 16.001C24.5 16.828 23.827 17.501 23 17.501Z" fill="white"/>
<path d="M53 15C53 14.447 52.553 14 52 14H40C39.447 14 39 14.447 39 15V17C39 17.553 39.447 18 40 18H52C52.553 18 53 17.553 53 17V15ZM52 17H40V15H52V17Z" fill="white"/>
<path d="M34.814 34.582L38 36.857V49.001C38 50.651 39.35 52.001 41 52.001C42.65 52.001 44 50.651 44 49.001V36.857L47.186 34.582C47.636 34.261 48 33.554 48 33.001V28.001C48 27.448 47.684 26.685 47.293 26.294L44 23.001V29.001L41 31.001L38 29.001V23.001L34.707 26.294C34.316 26.685 34 27.448 34 28.001V33.001C34 33.554 34.364 34.261 34.814 34.582ZM35 28.001C35 27.716 35.213 27.202 35.414 27.001L37 25.415V29.001V29.536L37.445 29.833L40.445 31.833L41 32.203L41.555 31.833L44.555 29.833L45 29.536V29.001V25.208L46.586 26.897C46.787 27.099 47 27.716 47 28.001V33.001C47 33.232 46.793 33.634 46.604 33.769L43.418 36.044L43 36.343V36.858V49.002C43 50.105 42.103 51.002 41 51.002C39.897 51.002 39 50.105 39 49.002V36.857V36.342L38.581 36.043L35.395 33.768C35.207 33.634 35 33.232 35 33.001V28.001Z" fill="white"/>
<path d="M41 49.001V38.001" stroke="white" stroke-miterlimit="10" stroke-linecap="round"/>
<path d="M32 41H28V24H20V41H16L24 52L32 41ZM20 42H21V41.001V25H27V41.001V42H28H30.036L24 50.3L17.964 42H20Z" fill="white"/>
</svg>
