<svg width="131" height="131" viewBox="0 0 131 131" fill="none" xmlns="http://www.w3.org/2000/svg">
<mask id="path-1-inside-1_1_110" fill="white">
<path d="M121.225 39.6309C127.309 52.8336 128.52 67.7648 124.642 81.7753C120.765 95.7857 112.049 107.97 100.042 116.165C88.0356 124.361 73.5138 128.038 59.0535 126.545C44.5932 125.052 31.1293 118.485 21.0507 108.008L22.8598 106.268C32.5271 116.316 45.4413 122.616 59.3114 124.048C73.1814 125.48 87.1104 121.953 98.627 114.092C110.144 106.231 118.503 94.5442 122.223 81.1056C125.942 67.667 124.781 53.3454 118.945 40.6816L121.225 39.6309Z"/>
</mask>
<path d="M121.225 39.6309C127.309 52.8336 128.52 67.7648 124.642 81.7753C120.765 95.7857 112.049 107.97 100.042 116.165C88.0356 124.361 73.5138 128.038 59.0535 126.545C44.5932 125.052 31.1293 118.485 21.0507 108.008L22.8598 106.268C32.5271 116.316 45.4413 122.616 59.3114 124.048C73.1814 125.48 87.1104 121.953 98.627 114.092C110.144 106.231 118.503 94.5442 122.223 81.1056C125.942 67.667 124.781 53.3454 118.945 40.6816L121.225 39.6309Z" fill="#D9D9D9" stroke="#0C2B5F" stroke-width="4" mask="url(#path-1-inside-1_1_110)"/>
<mask id="path-2-inside-2_1_110" fill="white">
<path d="M11.3089 94.6892C4.37864 81.9103 2.19921 67.0895 5.1573 52.8564C8.11538 38.6233 16.0197 25.8983 27.4679 16.9389C38.916 7.97957 53.1678 3.36522 67.6946 3.91457C82.2215 4.46392 96.084 10.1414 106.823 19.9398L105.131 21.7943C94.8303 12.3959 81.5336 6.95014 67.5998 6.42322C53.6659 5.8963 39.9959 10.3223 29.0151 18.9159C18.0342 27.5095 10.4526 39.7152 7.61522 53.3672C4.77789 67.0193 6.86835 81.2351 13.5157 93.4924L11.3089 94.6892Z"/>
</mask>
<path d="M11.3089 94.6892C4.37864 81.9103 2.19921 67.0895 5.1573 52.8564C8.11538 38.6233 16.0197 25.8983 27.4679 16.9389C38.916 7.97957 53.1678 3.36522 67.6946 3.91457C82.2215 4.46392 96.084 10.1414 106.823 19.9398L105.131 21.7943C94.8303 12.3959 81.5336 6.95014 67.5998 6.42322C53.6659 5.8963 39.9959 10.3223 29.0151 18.9159C18.0342 27.5095 10.4526 39.7152 7.61522 53.3672C4.77789 67.0193 6.86835 81.2351 13.5157 93.4924L11.3089 94.6892Z" fill="#D9D9D9" stroke="#0C2B5F" stroke-width="4" mask="url(#path-2-inside-2_1_110)"/>
<path d="M35.8706 103.37L22.2332 107.267C22.0186 107.328 21.8706 107.524 21.8706 107.748V121.87" stroke="#0C2B5F" stroke-width="2"/>
<path d="M91.3706 23.3698L105.979 21.0999C106.223 21.0621 106.402 20.8524 106.402 20.6059L106.402 6.87036" stroke="#0C2B5F" stroke-width="2"/>
<path d="M72.3706 49.3704L87.5112 64.511C87.7087 64.7085 87.7061 65.0296 87.5054 65.2238L72.3706 79.8704" stroke="#0C2B5F" stroke-width="2"/>
<path d="M51.3706 48.8704L36.23 64.011C36.0325 64.2085 36.0351 64.5296 36.2358 64.7238L51.3706 79.3704" stroke="#0C2B5F" stroke-width="2"/>
</svg>
