<svg width="123" height="105" viewBox="0 0 123 105" fill="none" xmlns="http://www.w3.org/2000/svg">
<mask id="path-1-inside-1_1_91" fill="white">
<path d="M97.2387 29.483C92.9149 20.1915 85.8922 12.4181 77.0859 7.17621C68.2797 1.93432 58.0984 -0.532897 47.8695 0.0961703C37.6405 0.725238 27.8383 4.42141 19.7408 10.7029C11.6432 16.9843 5.62584 25.5596 2.47317 35.3109C-0.679499 45.0623 -0.821245 55.5372 2.06641 65.3702C4.95406 75.2033 10.7372 83.9383 18.6618 90.4365C26.5865 96.9348 36.285 100.895 46.4932 101.8C56.7014 102.706 66.9457 100.515 75.8905 95.5136L74.9996 93.9202C66.3749 98.7429 56.4973 100.855 46.6546 99.9821C36.8118 99.1089 27.4604 95.2906 19.8194 89.0249C12.1784 82.7592 6.6023 74.3369 3.81801 64.8559C1.03372 55.3748 1.17039 45.2748 4.21021 35.8725C7.25002 26.4703 13.052 18.2019 20.8597 12.1453C28.6674 6.08871 38.1187 2.52484 47.9815 1.91829C57.8444 1.31174 67.6611 3.69065 76.1522 8.7449C84.6432 13.7991 91.4146 21.2943 95.5836 30.2532L97.2387 29.483Z"/>
</mask>
<path d="M97.2387 29.483C92.9149 20.1915 85.8922 12.4181 77.0859 7.17621C68.2797 1.93432 58.0984 -0.532897 47.8695 0.0961703C37.6405 0.725238 27.8383 4.42141 19.7408 10.7029C11.6432 16.9843 5.62584 25.5596 2.47317 35.3109C-0.679499 45.0623 -0.821245 55.5372 2.06641 65.3702C4.95406 75.2033 10.7372 83.9383 18.6618 90.4365C26.5865 96.9348 36.285 100.895 46.4932 101.8C56.7014 102.706 66.9457 100.515 75.8905 95.5136L74.9996 93.9202C66.3749 98.7429 56.4973 100.855 46.6546 99.9821C36.8118 99.1089 27.4604 95.2906 19.8194 89.0249C12.1784 82.7592 6.6023 74.3369 3.81801 64.8559C1.03372 55.3748 1.17039 45.2748 4.21021 35.8725C7.25002 26.4703 13.052 18.2019 20.8597 12.1453C28.6674 6.08871 38.1187 2.52484 47.9815 1.91829C57.8444 1.31174 67.6611 3.69065 76.1522 8.7449C84.6432 13.7991 91.4146 21.2943 95.5836 30.2532L97.2387 29.483Z" fill="#D9D9D9" stroke="#0C2B5F" stroke-width="2" mask="url(#path-1-inside-1_1_91)"/>
<path d="M51.5 1C53.8114 1 56.1275 2.22164 58.3486 4.67871C60.5697 7.13575 62.6157 10.7473 64.3545 15.2949C67.8295 24.3836 70 37.0069 70 51C70 64.9931 67.8295 77.6164 64.3545 86.7051C62.6157 91.2527 60.5697 94.8643 58.3486 97.3213C56.1275 99.7784 53.8114 101 51.5 101C49.1886 101 46.8725 99.7784 44.6514 97.3213C42.4303 94.8643 40.3843 91.2527 38.6455 86.7051C35.1705 77.6164 33 64.9931 33 51C33 37.0069 35.1705 24.3836 38.6455 15.2949C40.3843 10.7473 42.4303 7.13575 44.6514 4.67871C46.8725 2.22164 49.1886 1 51.5 1Z" stroke="#0C2B5F" stroke-width="2"/>
<path d="M4 34H79" stroke="#0C2B5F" stroke-width="2"/>
<path d="M4 68L69 67" stroke="#0C2B5F" stroke-width="2"/>
<path d="M98.2803 98.68V38.52H99.9443V98.68H98.2803ZM99.1763 91.256C95.8909 91.256 92.7763 90.68 89.8323 89.528C86.9309 88.3333 84.7123 86.84 83.1763 85.048L84.3283 83.512C85.7789 85.1333 87.8269 86.52 90.4723 87.672C93.1603 88.7813 96.0403 89.336 99.1123 89.336C102.227 89.336 104.787 88.9093 106.792 88.056C108.798 87.2027 110.27 86.072 111.208 84.664C112.19 83.2133 112.68 81.6133 112.68 79.864C112.68 77.816 112.168 76.1733 111.144 74.936C110.12 73.6987 108.755 72.7173 107.048 71.992C105.384 71.2667 103.55 70.6693 101.544 70.2C99.5816 69.7307 97.5763 69.24 95.5283 68.728C93.5229 68.1733 91.6669 67.4907 89.9603 66.68C88.2963 65.8267 86.9523 64.6747 85.9283 63.224C84.9469 61.7307 84.4563 59.8107 84.4563 57.464C84.4563 55.4587 84.9896 53.5813 86.0563 51.832C87.1229 50.0827 88.7869 48.6747 91.0483 47.608C93.3096 46.4987 96.2109 45.944 99.7523 45.944C102.184 45.944 104.574 46.328 106.92 47.096C109.31 47.8213 111.336 48.8027 113 50.04L112.04 51.768C110.248 50.4453 108.264 49.464 106.088 48.824C103.912 48.184 101.822 47.864 99.8163 47.864C96.8296 47.864 94.3336 48.312 92.3283 49.208C90.3656 50.0613 88.9149 51.2133 87.9763 52.664C87.0376 54.1147 86.5683 55.7147 86.5683 57.464C86.5683 59.5547 87.0803 61.2187 88.1042 62.456C89.1283 63.6933 90.4723 64.6747 92.1363 65.4C93.8429 66.1253 95.6989 66.7227 97.7043 67.192C99.7096 67.6613 101.715 68.1733 103.72 68.728C105.726 69.24 107.56 69.9227 109.224 70.776C110.931 71.6293 112.275 72.7813 113.256 74.232C114.28 75.64 114.792 77.496 114.792 79.8C114.792 81.8053 114.238 83.6827 113.128 85.432C112.062 87.1813 110.355 88.5893 108.008 89.656C105.704 90.7227 102.76 91.256 99.1763 91.256Z" fill="#0C2B5F"/>
</svg>
