<svg width="104" height="104" viewBox="0 0 104 104" fill="none" xmlns="http://www.w3.org/2000/svg">
<path d="M82.1275 40.0403H21.905C14.7253 40.0403 8.90503 45.8606 8.90503 53.0403V84.5003C8.90503 91.68 14.7253 97.5003 21.905 97.5003H82.1275C89.3072 97.5003 95.1275 91.68 95.1275 84.5003V53.0403C95.1275 45.8606 89.3072 40.0403 82.1275 40.0403Z" stroke="#0C2B5F" stroke-width="2" stroke-linecap="round" stroke-linejoin="round"/>
<path d="M52 6.5C58.6715 6.5 65.0698 9.15025 69.7872 13.8677C74.5047 18.5852 77.155 24.9835 77.155 31.655V40.04H26.845V31.655C26.845 24.9835 29.4952 18.5852 34.2127 13.8677C38.9302 9.15025 45.3284 6.5 52 6.5Z" stroke="#0C2B5F" stroke-width="2" stroke-linecap="round" stroke-linejoin="round"/>
<path d="M51.9999 71.175C57.2949 71.175 61.5874 66.8825 61.5874 61.5875C61.5874 56.2925 57.2949 52 51.9999 52C46.7048 52 42.4124 56.2925 42.4124 61.5875C42.4124 66.8825 46.7048 71.175 51.9999 71.175Z" fill="#65A4D6"/>
<path d="M52 75.9523V56.7773" stroke="#65A4D6" stroke-width="2" stroke-linecap="round" stroke-linejoin="round"/>
</svg>
