<svg width="71" height="71" viewBox="0 0 71 71" fill="none" xmlns="http://www.w3.org/2000/svg">
<path d="M35.5 46.5938C39.1761 46.5938 42.1562 43.6136 42.1562 39.9375C42.1562 36.2614 39.1761 33.2812 35.5 33.2812C31.8239 33.2812 28.8438 36.2614 28.8438 39.9375C28.8438 43.6136 31.8239 46.5938 35.5 46.5938Z" stroke="#0C2B5F" stroke-width="2" stroke-miterlimit="10" stroke-linejoin="round"/>
<path d="M68.7812 39.9375C68.7812 39.9375 55.4688 19.9688 35.5 19.9688C15.5312 19.9688 2.21875 39.9375 2.21875 39.9375C2.21875 39.9375 15.5312 59.9062 35.5 59.9062C55.4688 59.9062 68.7812 39.9375 68.7812 39.9375Z" stroke="#0C2B5F" stroke-width="2" stroke-miterlimit="10" stroke-linejoin="round"/>
<path d="M35.5 13.3125V4.4375" stroke="#0C2B5F" stroke-width="2" stroke-miterlimit="10" stroke-linejoin="round"/>
<path d="M15.5312 19.9688L8.875 13.3125" stroke="#0C2B5F" stroke-width="2" stroke-miterlimit="10" stroke-linejoin="round"/>
<path d="M55.4688 19.9688L62.125 13.3125" stroke="#0C2B5F" stroke-width="2" stroke-miterlimit="10" stroke-linejoin="round"/>
</svg>
