<svg width="121" height="146" viewBox="0 0 121 146" fill="none" xmlns="http://www.w3.org/2000/svg">
<circle cx="84.5" cy="101.5" r="35.5" stroke="#0C2B5F" stroke-width="2"/>
<path d="M71.4052 62.9765C70.7037 57.1269 67.88 51.7382 63.4694 47.8323C59.0589 43.9263 53.3682 41.7748 47.4768 41.7858C46.9848 41.7802 46.4966 41.8723 46.0405 42.0569C45.5844 42.2415 45.1696 42.5149 44.82 42.8612C44.4705 43.2075 44.1932 43.6198 44.0044 44.0741C43.8155 44.5285 43.7188 45.0158 43.7198 45.5078C43.7209 45.9999 43.8197 46.4868 44.0105 46.9403C44.2013 47.3938 44.4803 47.8049 44.8314 48.1497C45.1824 48.4945 45.5984 48.7661 46.0553 48.9488C46.5121 49.1314 47.0008 49.2215 47.4927 49.2137C51.5642 49.2065 55.4969 50.6936 58.545 53.3929C61.593 56.0923 63.5447 59.8162 64.0298 63.8588C64.1471 64.8371 64.6483 65.7288 65.4231 66.3376C66.1979 66.9464 67.1828 67.2225 68.1611 67.1051C69.1395 66.9878 70.0311 66.4866 70.6399 65.7118C71.2488 64.937 71.5249 63.9522 71.4075 62.9738L71.4052 62.9765Z" fill="#0C2B5F"/>
<path d="M73.5809 36.4111C66.1243 29.7892 56.4227 26.2606 46.4542 26.5447C45.9598 26.5475 45.4708 26.649 45.0161 26.8433C44.5614 27.0375 44.1501 27.3206 43.8062 27.6759C43.4623 28.0312 43.1929 28.4516 43.0136 28.9125C42.8344 29.3733 42.7489 29.8653 42.7623 30.3596C42.7757 30.8539 42.8877 31.3405 43.0916 31.7909C43.2955 32.2414 43.5874 32.6466 43.95 32.9828C44.3126 33.3189 44.7386 33.5793 45.2032 33.7487C45.6678 33.918 46.1615 33.9929 46.6554 33.9689C54.7384 33.7508 62.6024 36.6116 68.6558 41.9725C74.7093 47.3333 78.5 54.7938 79.2607 62.8438C79.2966 63.337 79.4307 63.818 79.6549 64.2587C79.8792 64.6994 80.1892 65.0908 80.5668 65.4101C80.9443 65.7294 81.3818 65.9701 81.8536 66.1181C82.3254 66.2661 82.822 66.3184 83.3143 66.2719C83.8066 66.2254 84.2846 66.0811 84.7204 65.8475C85.1562 65.6138 85.5409 65.2955 85.8521 64.9112C86.1632 64.5269 86.3945 64.0843 86.5323 63.6095C86.6702 63.1346 86.7118 62.637 86.6548 62.1458C85.7315 52.2161 81.0558 43.0124 73.5809 36.4111Z" fill="#0C2B5F"/>
<path d="M101.74 59.4957C100.167 46.1676 93.745 33.8842 83.6978 24.9865C73.6506 16.0889 60.6808 11.199 47.2602 11.2489C46.7654 11.2401 46.2737 11.3302 45.8141 11.5141C45.3546 11.698 44.9364 11.9718 44.5842 12.3196C44.232 12.6674 43.9528 13.082 43.7631 13.5392C43.5735 13.9964 43.4771 14.4869 43.4796 14.9818C43.4822 15.4768 43.5836 15.9663 43.778 16.4215C43.9724 16.8767 44.2559 17.2884 44.6117 17.6325C44.9674 17.9766 45.3884 18.2462 45.8499 18.4253C46.3113 18.6044 46.8039 18.6894 47.2986 18.6755C58.8916 18.6349 70.0944 22.8599 78.7733 30.5459C87.4522 38.2318 93.0008 48.8416 94.3622 60.3544C94.4766 61.3329 94.975 62.2259 95.7478 62.837C96.5206 63.448 97.5044 63.727 98.483 63.6127C99.4615 63.4983 100.355 62.9999 100.966 62.2271C101.577 61.4543 101.856 60.4704 101.741 59.4919L101.74 59.4957Z" fill="#0C2B5F"/>
<path d="M45.2372 68.4163C47.5774 70.4887 51.1545 70.2717 53.2269 67.9315C55.2993 65.5914 55.0822 62.0143 52.7421 59.9419C50.4019 57.8695 46.8249 58.0865 44.7525 60.4267C42.6801 62.7668 42.8971 66.3439 45.2372 68.4163Z" fill="#0C2B5F"/>
<path d="M45.2372 142.227C47.5774 144.299 51.1545 144.082 53.2269 141.742C55.2993 139.402 55.0822 135.825 52.7421 133.752C50.4019 131.68 46.8249 131.897 44.7525 134.237C42.6801 136.577 42.8971 140.154 45.2372 142.227Z" fill="#0C2B5F"/>
<path d="M4.23725 69.2269C6.5774 71.2993 10.1545 71.0822 12.2269 68.7421C14.2993 66.4019 14.0822 62.8248 11.7421 60.7524C9.40195 58.68 5.82486 58.8971 3.75246 61.2372C1.68005 63.5774 1.8971 67.1544 4.23725 69.2269Z" fill="#0C2B5F"/>
<path d="M4.23725 140.227C6.5774 142.299 10.1545 142.082 12.2269 139.742C14.2993 137.402 14.0822 133.825 11.7421 131.752C9.40195 129.68 5.82486 129.897 3.75246 132.237C1.68005 134.577 1.8971 138.154 4.23725 140.227Z" fill="#0C2B5F"/>
<path d="M49 68V137L8 65V137" stroke="#0C2B5F" stroke-width="2"/>
<path d="M95.4288 97.8601H74.5825C72.0972 97.8601 70.0825 99.8748 70.0825 102.36V113.25C70.0825 115.735 72.0972 117.75 74.5825 117.75H95.4288C97.9141 117.75 99.9288 115.735 99.9288 113.25V102.36C99.9288 99.8748 97.9141 97.8601 95.4288 97.8601Z" stroke="#0C2B5F" stroke-width="2" stroke-linecap="round" stroke-linejoin="round"/>
<path d="M85 86.25C87.3094 86.25 89.5241 87.1674 91.1571 88.8004C92.7901 90.4333 93.7075 92.6481 93.7075 94.9575V97.86H76.2925V94.9575C76.2925 92.6481 77.2099 90.4333 78.8428 88.8004C80.4758 87.1674 82.6906 86.25 85 86.25Z" stroke="#0C2B5F" stroke-width="2" stroke-linecap="round" stroke-linejoin="round"/>
<path d="M85 108.637C86.8329 108.637 88.3188 107.152 88.3188 105.319C88.3188 103.486 86.8329 102 85 102C83.1671 102 81.6813 103.486 81.6813 105.319C81.6813 107.152 83.1671 108.637 85 108.637Z" fill="#65A4D6"/>
<path d="M85 110.291V103.654" stroke="#65A4D6" stroke-width="0.692308" stroke-linecap="round" stroke-linejoin="round"/>
</svg>
