<svg width="144" height="174" viewBox="0 0 144 174" fill="none" xmlns="http://www.w3.org/2000/svg">
<path d="M142.341 29.3398C119.304 31.6435 85.8447 11.9247 71.9949 1.77734C57.1852 19.2199 18.6526 27.42 1.23755 29.3398V100.097C1.23755 113.261 3.29445 121.489 6.99687 127.248C29.2114 156.868 64.1787 169.209 71.9949 172.5C88.8615 165.095 126.297 140.412 134.525 127.248C138.843 120.339 142.067 106.679 142.341 100.097C142.615 78.4311 142.999 33.9473 142.341 29.3398Z" stroke="#0C2B5F" stroke-width="1.64552"/>
<path d="M128.06 38.0798C109.436 39.945 82.3878 23.9799 71.1914 15.7642C59.2191 29.8863 28.0688 36.5255 13.9902 38.0798V95.3677C13.9902 106.026 15.6531 112.687 18.6461 117.35C36.6047 141.331 64.8727 151.323 71.1914 153.988C84.8266 147.993 115.09 128.008 121.741 117.35C125.232 111.756 127.838 100.697 128.06 95.3677C128.282 77.826 128.592 41.8102 128.06 38.0798Z" stroke="#0C2B5F" stroke-width="1.64552"/>
<circle cx="71.1721" cy="84.4646" r="31.6763" stroke="#0C2B5F" stroke-width="1.64552"/>
<path d="M50.1917 93.1037L58.0079 101.331L89.2727 69.655" stroke="#0C2B5F" stroke-width="1.64552"/>
</svg>
