<svg width="137" height="136" viewBox="0 0 137 136" fill="none" xmlns="http://www.w3.org/2000/svg">
<path d="M10 135H136.5" stroke="#0C2B5F" stroke-width="2"/>
<mask id="path-2-inside-1_2_357" fill="white">
<path d="M109 97H127V135H109V97Z"/>
</mask>
<path d="M109 97V95H107V97H109ZM127 97H129V95H127V97ZM109 99H127V95H109V99ZM125 97V135H129V97H125ZM111 135V97H107V135H111Z" fill="#0C2B5F" mask="url(#path-2-inside-1_2_357)"/>
<mask id="path-4-inside-2_2_357" fill="white">
<path d="M61 79H79V135H61V79Z"/>
</mask>
<path d="M61 79V77H59V79H61ZM79 79H81V77H79V79ZM61 81H79V77H61V81ZM77 79V135H81V79H77ZM63 135V79H59V135H63Z" fill="#0C2B5F" mask="url(#path-4-inside-2_2_357)"/>
<mask id="path-6-inside-3_2_357" fill="white">
<path d="M50.1704 95L63.0833 107.54L35.9128 135.518L22.9999 122.978L50.1704 95Z"/>
</mask>
<path d="M50.1704 95L51.5638 93.5652L50.129 92.1719L48.7356 93.6066L50.1704 95ZM63.0833 107.54L64.5181 108.934L65.9114 107.499L64.4767 106.105L63.0833 107.54ZM35.9128 135.518L34.5195 136.953L35.9542 138.346L37.3476 136.912L35.9128 135.518ZM22.9999 122.978L21.5652 121.585L20.1718 123.019L21.6066 124.413L22.9999 122.978ZM48.7771 96.4348L61.6899 108.975L64.4767 106.105L51.5638 93.5652L48.7771 96.4348ZM61.6485 106.147L34.4781 134.125L37.3476 136.912L64.5181 108.934L61.6485 106.147ZM37.3062 134.083L24.3933 121.543L21.6066 124.413L34.5195 136.953L37.3062 134.083ZM24.4347 124.371L51.6052 96.3934L48.7356 93.6066L21.5652 121.585L24.4347 124.371Z" fill="#0C2B5F" mask="url(#path-6-inside-3_2_357)"/>
<mask id="path-8-inside-4_2_357" fill="white">
<path d="M85 78H103V134H85V78Z"/>
</mask>
<path d="M101 78V134H105V78H101ZM87 134V78H83V134H87Z" fill="#0C2B5F" mask="url(#path-8-inside-4_2_357)"/>
<path d="M30.9375 12.5C33.5897 7.90618 40.1581 7.83476 42.9326 12.2852L43.0625 12.5L61.249 44C63.9432 48.6666 60.5751 54.5 55.1865 54.5H18.8135C13.509 54.5 10.1631 48.8477 12.6299 44.2197L12.751 44L30.9375 12.5Z" stroke="#0C2B5F" stroke-width="2"/>
<path d="M34.0465 39.336L32.5585 17.4H41.4865L39.9985 39.336H34.0465ZM37.0225 51.384C35.6785 51.384 34.5745 50.952 33.7105 50.088C32.8465 49.224 32.4145 48.2 32.4145 47.016C32.4145 45.8 32.8465 44.792 33.7105 43.992C34.5745 43.16 35.6785 42.744 37.0225 42.744C38.3985 42.744 39.5025 43.16 40.3345 43.992C41.1985 44.792 41.6305 45.8 41.6305 47.016C41.6305 48.2 41.1985 49.224 40.3345 50.088C39.5025 50.952 38.3985 51.384 37.0225 51.384Z" fill="#0C2B5F"/>
<mask id="path-12-inside-5_2_357" fill="white">
<path d="M99.7302 69.9177C101.79 67.754 105.214 67.6701 107.378 69.7303L126.218 87.6685C128.382 89.7286 128.466 93.1527 126.405 95.3164C124.345 97.4802 120.921 97.5641 118.757 95.5039L99.9177 77.5657C97.754 75.5055 97.67 72.0814 99.7302 69.9177Z"/>
</mask>
<path d="M99.7302 69.9177C102.552 66.9541 107.242 66.8391 110.206 69.6609L127.597 86.22C130.561 89.0419 130.676 93.7319 127.854 96.6956L124.957 93.9373C126.255 92.5736 126.203 90.4154 124.839 89.1169L105.999 71.1787C103.835 69.1185 101.029 68.554 99.7302 69.9177ZM127.854 96.6956C125.032 99.6592 120.342 99.7742 117.378 96.9524L99.987 80.3933C97.0233 77.5715 96.9084 72.8814 99.7302 69.9177C98.4317 71.2815 99.1331 74.0571 101.297 76.1173L120.137 94.0555C121.5 95.354 123.658 95.3011 124.957 93.9373L127.854 96.6956ZM95.9999 73.8355L103.46 66L95.9999 73.8355ZM127.597 86.22C130.561 89.0419 130.676 93.7319 127.854 96.6956C125.032 99.6592 120.342 99.7742 117.378 96.9524L120.137 94.0555C121.5 95.354 123.658 95.3011 124.957 93.9373C126.255 92.5736 126.203 90.4154 124.839 89.1169L127.597 86.22Z" fill="#0C2B5F" mask="url(#path-12-inside-5_2_357)"/>
<circle cx="84.5" cy="57.5" r="19.5" stroke="#0C2B5F" stroke-width="2"/>
<circle cx="85" cy="58" r="14" fill="#0C2B5F" stroke="#0C2B5F" stroke-width="2"/>
<mask id="path-16-inside-6_2_357" fill="white">
<path d="M80.7244 46.142C82.2515 45.3346 83.9474 44.8982 85.6746 44.8681C87.4018 44.8381 89.1118 45.2153 90.6661 45.9691C92.2204 46.7229 93.5753 47.8323 94.6211 49.2072C95.6669 50.5822 96.3742 52.1841 96.6856 53.8832L95.7102 54.062C95.4268 52.5161 94.7833 51.0586 93.8318 49.8076C92.8803 48.5566 91.6475 47.5473 90.2333 46.8614C88.8192 46.1755 87.2633 45.8323 85.6918 45.8597C84.1203 45.887 82.5774 46.2841 81.1879 47.0187L80.7244 46.142Z"/>
</mask>
<path d="M80.7244 46.142C82.2515 45.3346 83.9474 44.8982 85.6746 44.8681C87.4018 44.8381 89.1118 45.2153 90.6661 45.9691C92.2204 46.7229 93.5753 47.8323 94.6211 49.2072C95.6669 50.5822 96.3742 52.1841 96.6856 53.8832L95.7102 54.062C95.4268 52.5161 94.7833 51.0586 93.8318 49.8076C92.8803 48.5566 91.6475 47.5473 90.2333 46.8614C88.8192 46.1755 87.2633 45.8323 85.6918 45.8597C84.1203 45.887 82.5774 46.2841 81.1879 47.0187L80.7244 46.142Z" stroke="#F5F5F5" stroke-width="4" mask="url(#path-16-inside-6_2_357)"/>
</svg>
