<svg width="36" height="36" viewBox="0 0 36 36" fill="none" xmlns="http://www.w3.org/2000/svg">
<g clip-path="url(#clip0_2_314)">
<path d="M35.7493 34.557L22.1228 21.057C23.7418 19.2327 24.7992 16.9795 25.1677 14.5684C25.5362 12.1573 25.2002 9.69104 24.2001 7.46642C23.1999 5.2418 21.5783 3.35356 19.5302 2.02891C17.4822 0.704264 15.095 -0.000366304 12.6559 -0.000195198C10.9931 -0.00483462 9.34601 0.320406 7.80984 0.956697C6.27366 1.59299 4.87897 2.52769 3.7065 3.70668C1.93647 5.47669 0.731063 7.73183 0.24271 10.1869C-0.245644 12.642 0.00499261 15.1868 0.962923 17.4994C1.92085 19.812 3.54305 21.7887 5.62438 23.1794C7.70571 24.5701 10.1527 25.3123 12.6559 25.3123C15.6913 25.3199 18.6267 24.2279 20.919 22.2382L34.5624 35.7551C34.6401 35.8376 34.7335 35.9036 34.8373 35.9492C34.941 35.9948 35.0528 36.019 35.1661 36.0205C35.2793 36.0219 35.3917 36.0006 35.4966 35.9576C35.6014 35.9147 35.6965 35.8511 35.7763 35.7706C35.856 35.6901 35.9187 35.5944 35.9606 35.4892C36.0026 35.3839 36.0229 35.2713 36.0204 35.1581C36.0179 35.0448 35.9926 34.9332 35.946 34.83C35.8994 34.7267 35.8325 34.6339 35.7493 34.557ZM4.899 20.4129C2.84233 18.3559 1.68694 15.5663 1.68694 12.6575C1.68694 9.74867 2.84233 6.95898 4.899 4.90199C6.95588 2.84474 9.74575 1.68884 12.6549 1.68858C14.0953 1.68845 15.5217 1.97204 16.8526 2.52315C18.1834 3.07427 19.3927 3.88212 20.4113 4.90059C21.43 5.91905 22.2381 7.12818 22.7894 8.45893C23.3408 9.78969 23.6246 11.216 23.6248 12.6565C23.6249 14.0969 23.3413 15.5233 22.7902 16.8542C22.2391 18.185 21.4312 19.3943 20.4128 20.4129C18.3558 22.4696 15.5661 23.625 12.6573 23.625C9.74849 23.625 6.9588 22.4696 4.90181 20.4129H4.899Z" fill="#0C2B5F"/>
</g>
<defs>
<clipPath id="clip0_2_314">
<rect width="36" height="36" fill="white"/>
</clipPath>
</defs>
</svg>
