<svg width="199" height="145" viewBox="0 0 199 145" fill="none" xmlns="http://www.w3.org/2000/svg">
<path d="M153.914 108.051C153.914 110.383 152.048 115.047 144.586 115.047C137.123 115.047 130.076 115.047 127.484 115.047" stroke="#0C2B5F" stroke-width="2"/>
<circle cx="98.7227" cy="24.0977" r="23.0977" stroke="#0C2B5F" stroke-width="2"/>
<path d="M19.7656 44.083C20.0334 44.9071 20.8015 45.4648 21.668 45.4648H30.2881L23.3145 50.5322C22.6573 51.0097 22.3581 51.8332 22.5439 52.6133L22.5879 52.7686L25.252 60.9678L18.2773 55.9004C17.6203 55.423 16.7449 55.393 16.0605 55.8105L15.9258 55.9004L8.95117 60.9678L11.6152 52.7686C11.8662 51.9961 11.6244 51.1547 11.0156 50.6328L10.8887 50.5322L3.91504 45.4648H12.5352C13.3476 45.4648 14.0738 44.9748 14.3818 44.2344L14.4375 44.083L17.1016 35.8848L19.7656 44.083Z" stroke="#0C2B5F" stroke-width="2"/>
<path d="M184.562 44.083C184.83 44.9071 185.598 45.4648 186.465 45.4648H195.085L188.111 50.5322C187.454 51.0097 187.155 51.8332 187.341 52.6133L187.385 52.7686L190.049 60.9678L183.074 55.9004C182.417 55.423 181.542 55.393 180.857 55.8105L180.723 55.9004L173.748 60.9678L176.412 52.7686C176.663 51.9961 176.421 51.1547 175.812 50.6328L175.686 50.5322L168.712 45.4648H177.332C178.144 45.4648 178.871 44.9748 179.179 44.2344L179.234 44.083L181.898 35.8848L184.562 44.083Z" stroke="#0C2B5F" stroke-width="2"/>
<path d="M50.0977 78.457C50.3487 79.2294 51.0397 79.7677 51.8389 79.832L52 79.8389H65.7041L54.6172 87.8936C53.96 88.3711 53.6607 89.1945 53.8467 89.9746L53.8906 90.1299L58.125 103.162L47.0391 95.1074C46.3819 94.63 45.5067 94.6008 44.8223 95.0186L44.6875 95.1074L33.6016 103.162L37.8359 90.1299C38.0869 89.3574 37.8451 88.515 37.2363 87.9932L37.1094 87.8936L26.0225 79.8389H39.7266C40.5386 79.8388 41.264 79.3484 41.5723 78.6084L41.6289 78.457L45.8633 65.4238L50.0977 78.457Z" stroke="#0C2B5F" stroke-width="2"/>
<path d="M157.371 78.457C157.622 79.2294 158.313 79.7677 159.112 79.832L159.273 79.8389H172.978L161.891 87.8936C161.233 88.3711 160.934 89.1945 161.12 89.9746L161.164 90.1299L165.398 103.162L154.312 95.1074C153.655 94.63 152.78 94.6008 152.096 95.0186L151.961 95.1074L140.875 103.162L145.109 90.1299C145.36 89.3574 145.119 88.515 144.51 87.9932L144.383 87.8936L133.296 79.8389H147C147.812 79.8388 148.537 79.3484 148.846 78.6084L148.902 78.457L153.137 65.4238L157.371 78.457Z" stroke="#0C2B5F" stroke-width="2"/>
<path d="M105.4 98.4141C105.668 99.2381 106.436 99.7959 107.303 99.7959H128.913L111.43 112.498C110.773 112.976 110.474 113.799 110.66 114.579L110.703 114.734L117.382 135.287L99.8984 122.585C99.2414 122.108 98.366 122.078 97.6816 122.495L97.5469 122.585L80.0635 135.287L86.7422 114.734C86.9932 113.962 86.7504 113.12 86.1416 112.599L86.0156 112.498L68.5322 99.7959H90.1426C90.9548 99.7959 91.6801 99.3055 91.9883 98.5654L92.0449 98.4141L98.7227 77.8613L105.4 98.4141Z" stroke="#0C2B5F" stroke-width="2"/>
<path d="M76.957 48.1949C72.5521 47.9358 61.8766 50.9934 54.4141 65.2965" stroke="#0C2B5F" stroke-width="2"/>
<path d="M45.0861 107.273C44.5679 110.124 45.5526 115.824 53.6369 115.824C61.7213 115.824 68.9246 115.824 71.5157 115.824" stroke="#0C2B5F" stroke-width="2"/>
<path d="M122.043 48.9727C126.966 49.75 138.056 54.1031 143.031 65.2969" stroke="#0C2B5F" stroke-width="2"/>
</svg>
