<svg width="149" height="149" viewBox="0 0 149 149" fill="none" xmlns="http://www.w3.org/2000/svg">
<mask id="path-1-inside-1_1_129" fill="white">
<path d="M107.133 76.3232C109.605 86.601 108.635 97.4061 104.373 107.079C100.11 116.753 92.79 124.76 83.5367 129.87C74.2834 134.981 63.6083 136.914 53.1506 135.371C42.6928 133.828 33.0305 128.896 25.6472 121.331C18.2638 113.766 13.5676 103.986 12.2796 93.494C10.9916 83.0019 13.183 72.377 18.5174 63.2507C23.8517 54.1244 32.0341 47.0012 41.8082 42.9749C51.5823 38.9486 62.4078 38.2417 72.6225 40.9627L72.2331 42.4245C62.3385 39.7887 51.8522 40.4735 42.3844 44.3737C32.9166 48.2738 24.9906 55.1738 19.8234 64.0141C14.6562 72.8544 12.5335 83.1463 13.7811 93.3097C15.0288 103.473 19.5778 112.946 26.7298 120.274C33.8818 127.602 43.2413 132.38 53.3714 133.874C63.5014 135.369 73.8419 133.497 82.8053 128.546C91.7686 123.595 98.8592 115.84 102.988 106.469C107.118 97.0992 108.057 86.6327 105.663 76.6769L107.133 76.3232Z"/>
</mask>
<path d="M107.133 76.3232C109.605 86.601 108.635 97.4061 104.373 107.079C100.11 116.753 92.79 124.76 83.5367 129.87C74.2834 134.981 63.6083 136.914 53.1506 135.371C42.6928 133.828 33.0305 128.896 25.6472 121.331C18.2638 113.766 13.5676 103.986 12.2796 93.494C10.9916 83.0019 13.183 72.377 18.5174 63.2507C23.8517 54.1244 32.0341 47.0012 41.8082 42.9749C51.5823 38.9486 62.4078 38.2417 72.6225 40.9627L72.2331 42.4245C62.3385 39.7887 51.8522 40.4735 42.3844 44.3737C32.9166 48.2738 24.9906 55.1738 19.8234 64.0141C14.6562 72.8544 12.5335 83.1463 13.7811 93.3097C15.0288 103.473 19.5778 112.946 26.7298 120.274C33.8818 127.602 43.2413 132.38 53.3714 133.874C63.5014 135.369 73.8419 133.497 82.8053 128.546C91.7686 123.595 98.8592 115.84 102.988 106.469C107.118 97.0992 108.057 86.6327 105.663 76.6769L107.133 76.3232Z" stroke="#0C2B5F" stroke-width="2.384" mask="url(#path-1-inside-1_1_129)"/>
<circle cx="110.558" cy="38.442" r="37.846" stroke="#0C2B5F" stroke-width="1.192"/>
<circle cx="134.994" cy="89.1019" r="5.066" stroke="#0C2B5F" stroke-width="1.192"/>
<circle cx="60.494" cy="89.1019" r="5.066" stroke="#0C2B5F" stroke-width="1.192"/>
<circle cx="60.494" cy="15.1979" r="5.066" stroke="#0C2B5F" stroke-width="1.192"/>
<mask id="path-6-inside-2_1_129" fill="white">
<path d="M118.808 75.0862C121.789 87.821 120.54 101.18 115.252 113.142C109.964 125.105 100.924 135.019 89.4993 141.386C78.0746 147.753 64.8871 150.226 51.932 148.43C38.9768 146.634 26.9589 140.668 17.6965 131.434C8.43404 122.2 2.43103 110.201 0.595653 97.2512C-1.23972 84.3017 1.1924 71.1066 7.52407 59.6624C13.8557 48.2182 23.7424 39.1475 35.6884 33.8227C47.6343 28.4978 60.9895 27.2085 73.7335 30.1499L73.3969 31.6081C60.9698 28.7399 47.9466 29.9972 36.2977 35.1896C24.6487 40.3821 15.0078 49.2273 8.8336 60.3869C2.65935 71.5466 0.287697 84.4136 2.07744 97.0412C3.86719 109.669 9.72095 121.37 18.7531 130.374C27.7853 139.379 39.5044 145.197 52.1374 146.948C64.7705 148.698 77.6301 146.287 88.7707 140.079C99.9114 133.87 108.727 124.202 113.883 112.537C119.04 100.872 120.257 87.8455 117.351 75.4272L118.808 75.0862Z"/>
</mask>
<path d="M118.808 75.0862C121.789 87.821 120.54 101.18 115.252 113.142C109.964 125.105 100.924 135.019 89.4993 141.386C78.0746 147.753 64.8871 150.226 51.932 148.43C38.9768 146.634 26.9589 140.668 17.6965 131.434C8.43404 122.2 2.43103 110.201 0.595653 97.2512C-1.23972 84.3017 1.1924 71.1066 7.52407 59.6624C13.8557 48.2182 23.7424 39.1475 35.6884 33.8227C47.6343 28.4978 60.9895 27.2085 73.7335 30.1499L73.3969 31.6081C60.9698 28.7399 47.9466 29.9972 36.2977 35.1896C24.6487 40.3821 15.0078 49.2273 8.8336 60.3869C2.65935 71.5466 0.287697 84.4136 2.07744 97.0412C3.86719 109.669 9.72095 121.37 18.7531 130.374C27.7853 139.379 39.5044 145.197 52.1374 146.948C64.7705 148.698 77.6301 146.287 88.7707 140.079C99.9114 133.87 108.727 124.202 113.883 112.537C119.04 100.872 120.257 87.8455 117.351 75.4272L118.808 75.0862Z" stroke="#0C2B5F" stroke-width="2.384" mask="url(#path-6-inside-2_1_129)"/>
<path d="M60.4939 52.7461V83.4401" stroke="#0C2B5F" stroke-width="1.192"/>
<path d="M63.772 92.3799L80.758 108.77" stroke="#0C2B5F" stroke-width="1.192"/>
<path d="M134.994 94.4661C134.497 104.399 129.63 127.663 114.134 141.252" stroke="#0C2B5F" stroke-width="1.192"/>
<path d="M55.726 15.198C50.064 15.198 22.052 22.1116 11.324 35.462" stroke="#0C2B5F" stroke-width="1.192"/>
<path d="M109.28 49.5777V51.4961H92.3122V49.764L101.196 39.6878C102.301 38.4338 103.183 37.3349 103.841 36.3912C104.499 35.4351 104.971 34.566 105.257 33.7837C105.555 32.9891 105.704 32.2192 105.704 31.4742C105.704 30.3816 105.486 29.4193 105.052 28.5873C104.629 27.7554 103.996 27.1036 103.152 26.6317C102.308 26.1599 101.265 25.924 100.023 25.924C98.7812 25.924 97.701 26.1909 96.7822 26.7248C95.8633 27.2588 95.1556 28.0038 94.6589 28.9598C94.1747 29.9035 93.9325 30.9776 93.9325 32.182H91.7162C91.7162 30.692 92.0452 29.3261 92.7033 28.0845C93.3738 26.8428 94.3299 25.8557 95.5715 25.1231C96.8132 24.3781 98.297 24.0056 100.023 24.0056C101.662 24.0056 103.071 24.2974 104.251 24.881C105.43 25.4521 106.337 26.2778 106.97 27.3581C107.616 28.4383 107.939 29.7421 107.939 31.2693C107.939 32.0888 107.79 32.9146 107.492 33.7465C107.206 34.5784 106.809 35.4103 106.3 36.2422C105.803 37.0617 105.232 37.875 104.586 38.6821C103.953 39.4892 103.288 40.2838 102.593 41.0661L95.0314 49.5777H109.28ZM131.369 42.7423V44.6421H112.166V43.357L124.701 24.3781H126.564L123.919 28.9785L114.886 42.7423H131.369ZM127.141 24.3781V51.4961H124.925V24.3781H127.141Z" fill="#0C2B5F"/>
<path d="M42.614 43.8059L44.998 47.9779" stroke="#0C2B5F" stroke-width="1.192"/>
<path d="M27.416 52.7529L31.1998 55.7148" stroke="#0C2B5F" stroke-width="1.192"/>
<path d="M17.2839 66.5256L21.8183 68.1159" stroke="#0C2B5F" stroke-width="1.192"/>
<path d="M12.4143 83.6902L17.207 84.0356" stroke="#0C2B5F" stroke-width="1.192"/>
<path d="M14.304 101.175L19.0407 100.368" stroke="#0C2B5F" stroke-width="1.192"/>
<path d="M26.2988 113.97L22.0521 116.219" stroke="#0C2B5F" stroke-width="1.192"/>
<path d="M38.196 123.968L35.7451 128.101" stroke="#0C2B5F" stroke-width="1.192"/>
<path d="M51.0386 129.928L50.0624 134.633" stroke="#0C2B5F" stroke-width="1.192"/>
<path d="M66.3132 130.213L65.9988 135.007" stroke="#0C2B5F" stroke-width="1.192"/>
<path d="M81.0559 125.756L83.4399 129.928" stroke="#0C2B5F" stroke-width="1.192"/>
<path d="M94.168 113.836L96.552 118.008" stroke="#0C2B5F" stroke-width="1.192"/>
<path d="M99.532 104.623L104.024 106.33" stroke="#0C2B5F" stroke-width="1.192"/>
<path d="M102.512 89.3828L107.207 90.4053" stroke="#0C2B5F" stroke-width="1.192"/>
<path d="M101.916 80.3254L106.642 79.4564" stroke="#0C2B5F" stroke-width="1.192"/>
<path d="M96.9194 65.5786L100.674 62.5801" stroke="#0C2B5F" stroke-width="1.192"/>
<path d="M89.3999 55.4231L93.7174 53.3139" stroke="#0C2B5F" stroke-width="1.192"/>
<path d="M82.2168 45.2959L78.3666 48.1708" stroke="#0C2B5F" stroke-width="1.192"/>
<path d="M66.0652 40.5281L65.7636 45.3237" stroke="#0C2B5F" stroke-width="1.192"/>
<path d="M54.4377 40.2439L55.2261 44.9839" stroke="#0C2B5F" stroke-width="1.192"/>
</svg>
